<svg id="AMIS_Bao_ve" data-name="AMIS/Bao ve" xmlns="http://www.w3.org/2000/svg" width="24" height="24" viewBox="0 0 24 24">
  <path id="Path_63325" data-name="Path 63325" d="M-43.5,377.272a.623.623,0,0,0-.441.163,11.943,11.943,0,0,1-6.948,2.793.629.629,0,0,0-.631.629v5.182c0,2.819,1.3,7.459,7.755,10.183a.631.631,0,0,0,.49,0c6.454-2.725,7.755-7.364,7.755-10.183V380.86a.632.632,0,0,0-.631-.633h0a11.935,11.935,0,0,1-6.947-2.793A.631.631,0,0,0-43.5,377.272Z" transform="translate(55.516 -374.772)" fill="none" stroke="#ffffff" stroke-miterlimit="10" stroke-width="2"/>
  <rect id="Rectangle_52" data-name="Rectangle 52" width="24" height="24" fill="none"/>
  <line id="Line_27" data-name="Line 27" x2="7" transform="translate(7.016 13.228)" fill="none" stroke="#ffffff" stroke-linecap="round" stroke-miterlimit="10" stroke-width="2"/>
  <line id="Line_28" data-name="Line 28" x2="3" transform="translate(7.428 9.065)" fill="none" stroke="#ffffff" stroke-linecap="round" stroke-miterlimit="10" stroke-width="2"/>
</svg>
