<svg xmlns="http://www.w3.org/2000/svg" width="340" height="253.341" viewBox="0 0 340 253.341">
  <g id="Data_Trends-rafiki" data-name="Data Trends-rafiki" transform="translate(0 -55)">
    <g id="freepik--background-complete--inject-67" transform="translate(0 55)">
      <rect id="Rectangle_21136" data-name="Rectangle 21136" width="340" height="0.17" transform="translate(0 222.632)" fill="#e8eaef"/>
      <rect id="Rectangle_21137" data-name="Rectangle 21137" width="22.522" height="0.17" transform="translate(35.673 229.106)" fill="#e8eaef"/>
      <rect id="Rectangle_21138" data-name="Rectangle 21138" width="17.945" height="0.17" transform="translate(104.339 227.263)" fill="#e8eaef"/>
      <rect id="Rectangle_21139" data-name="Rectangle 21139" width="31.226" height="0.17" transform="translate(61.18 233.118)" fill="#e8eaef"/>
      <rect id="Rectangle_21140" data-name="Rectangle 21140" width="14.688" height="0.17" transform="translate(291.244 234.28)" fill="#e8eaef"/>
      <rect id="Rectangle_21141" data-name="Rectangle 21141" width="21.74" height="0.17" transform="translate(266.2 234.28)" fill="#e8eaef"/>
      <rect id="Rectangle_21142" data-name="Rectangle 21142" width="37.482" height="0.17" transform="translate(188.503 231.411)" fill="#e8eaef"/>
      <path id="Path_37159" data-name="Path 37159" d="M173.387,247.3H42.086a3.883,3.883,0,0,1-3.876-3.883V58.849A3.883,3.883,0,0,1,42.086,55h131.3a3.883,3.883,0,0,1,3.883,3.883V243.421A3.883,3.883,0,0,1,173.387,247.3ZM42.086,55.136a3.713,3.713,0,0,0-3.706,3.713V243.421a3.713,3.713,0,0,0,3.706,3.713h131.3a3.72,3.72,0,0,0,3.713-3.713V58.849a3.72,3.72,0,0,0-3.713-3.713Z" transform="translate(-12.227 -55)" fill="#e8eaef"/>
      <path id="Path_37160" data-name="Path 37160" d="M389.691,247.3H258.383a3.89,3.89,0,0,1-3.883-3.883V58.849A3.89,3.89,0,0,1,258.383,55H389.691a3.883,3.883,0,0,1,3.869,3.849V243.421A3.883,3.883,0,0,1,389.691,247.3ZM258.383,55.136a3.72,3.72,0,0,0-3.713,3.713V243.421a3.72,3.72,0,0,0,3.713,3.713H389.691a3.72,3.72,0,0,0,3.713-3.713V58.849a3.72,3.72,0,0,0-3.713-3.713Z" transform="translate(-81.44 -55)" fill="#e8eaef"/>
      <rect id="Rectangle_21143" data-name="Rectangle 21143" width="144.017" height="88.842" transform="translate(52.72 20.726)" fill="#e8eaef"/>
      <rect id="Rectangle_21144" data-name="Rectangle 21144" width="145.989" height="88.842" transform="translate(54.448 20.726)" fill="#ebebeb"/>
      <rect id="Rectangle_21145" data-name="Rectangle 21145" width="144.017" height="6.875" transform="translate(52.72 109.568)" fill="#e8eaef"/>
      <rect id="Rectangle_21146" data-name="Rectangle 21146" width="145.989" height="6.875" transform="translate(60.608 109.568)" fill="#ebebeb"/>
      <rect id="Rectangle_21147" data-name="Rectangle 21147" width="78.486" height="135.626" transform="translate(195.255 25.908) rotate(90)" fill="#f5f5f5"/>
      <path id="Path_37161" data-name="Path 37161" d="M102.33,171.586l30.4-78.486h14.348l-30.4,78.486Z" transform="translate(-32.746 -67.192)" fill="#fff"/>
      <path id="Path_37162" data-name="Path 37162" d="M127.97,171.586l30.4-78.486h5.59l-30.4,78.486Z" transform="translate(-40.95 -67.192)" fill="#fff"/>
      <path id="Path_37163" data-name="Path 37163" d="M206.19,171.586l30.4-78.486h5.6l-30.4,78.486Z" transform="translate(-65.981 -67.192)" fill="#fff"/>
      <rect id="Rectangle_21148" data-name="Rectangle 21148" width="78.486" height="0.66" transform="translate(195.255 25.901) rotate(90)" fill="#e8eaef"/>
      <rect id="Rectangle_21149" data-name="Rectangle 21149" width="25.473" height="67.633" transform="translate(182.947 154.999)" fill="#e8eaef"/>
      <path id="Path_37164" data-name="Path 37164" d="M296.993,375.11h4.842V359.62H291.92Z" transform="translate(-93.414 -152.478)" fill="#ebebeb"/>
      <rect id="Rectangle_21150" data-name="Rectangle 21150" width="25.473" height="67.633" transform="translate(37.611 154.999)" fill="#ebebeb"/>
      <rect id="Rectangle_21151" data-name="Rectangle 21151" width="149.559" height="65.185" transform="translate(58.861 154.999)" fill="#ebebeb"/>
      <path id="Path_37165" data-name="Path 37165" d="M91.395,375.11H86.56V359.62h9.908Z" transform="translate(-27.699 -152.478)" fill="#ebebeb"/>
      <rect id="Rectangle_21152" data-name="Rectangle 21152" width="49.728" height="44.336" rx="2.41" transform="translate(63.838 212.133) rotate(-90)" fill="#f5f5f5"/>
      <path id="Path_37166" data-name="Path 37166" d="M124.046,298.366h-8.786c-3.808,0-7.48-2.264-10.071-6.276H134.1C131.5,296.109,127.854,298.366,124.046,298.366Z" transform="translate(-33.661 -130.869)" fill="#ebebeb"/>
      <rect id="Rectangle_21153" data-name="Rectangle 21153" width="49.728" height="44.336" rx="2.41" transform="translate(111.472 212.133) rotate(-90)" fill="#f5f5f5"/>
      <path id="Path_37167" data-name="Path 37167" d="M194.773,298.366H186c-3.815,0-7.48-2.264-10.071-6.276h28.914C202.219,296.109,198.581,298.366,194.773,298.366Z" transform="translate(-56.298 -130.869)" fill="#ebebeb"/>
      <rect id="Rectangle_21154" data-name="Rectangle 21154" width="49.728" height="44.336" rx="2.41" transform="translate(159.113 212.133) rotate(-90)" fill="#f5f5f5"/>
      <path id="Path_37168" data-name="Path 37168" d="M264.823,298.366h-8.772c-3.808,0-7.48-2.264-10.071-6.276H274.9C272.276,296.109,268.638,298.366,264.823,298.366Z" transform="translate(-78.714 -130.869)" fill="#ebebeb"/>
      <path id="Path_37169" data-name="Path 37169" d="M448.2,272.927a.68.68,0,0,0-.68-.537H429.8a.68.68,0,0,0-.68.537L420,347.2h1.36l9-73.44h16.619l9.01,73.44h1.36Z" transform="translate(-134.4 -124.565)" fill="#ebebeb"/>
      <path id="Path_37170" data-name="Path 37170" d="M408.95,272.927a.68.68,0,0,0-.68-.537H390.556a.68.68,0,0,0-.68.537L380.71,347.2H382.1l9.01-73.44h16.612l9,73.44h1.394Z" transform="translate(-121.827 -124.565)" fill="#ebebeb"/>
      <path id="Path_37171" data-name="Path 37171" d="M421.107,262.234H390.575c-5.834,0-9.058-3.958-10.71-10.486l-.809-3.733a7.643,7.643,0,0,1,7.48-9.466h19.142c3.964,0,5.012.945,7.745,6.916Z" transform="translate(-121.227 -113.736)" fill="#ebebeb"/>
      <path id="Path_37172" data-name="Path 37172" d="M416.46,264.78h29.879a4.182,4.182,0,0,1,4.182,4.182v.143A1.523,1.523,0,0,1,449,270.628H416.46Z" transform="translate(-133.267 -122.13)" fill="#ebebeb"/>
      <path id="Path_37173" data-name="Path 37173" d="M389.7,272.927a.68.68,0,0,0-.68-.537H371.28a.68.68,0,0,0-.68.537l-9.16,74.27h1.394l9-73.44h16.619l9,73.44h1.36Z" transform="translate(-115.661 -124.565)" fill="#ebebeb"/>
      <path id="Path_37174" data-name="Path 37174" d="M350.45,272.927a.68.68,0,0,0-.68-.537H332.056a.68.68,0,0,0-.68.537L322.21,347.2H323.6l9.01-73.44h16.612l9,73.44h1.394Z" transform="translate(-103.107 -124.565)" fill="#ebebeb"/>
      <path id="Path_37175" data-name="Path 37175" d="M362.557,262.234H332.025c-5.834,0-9.064-3.958-10.71-10.486l-.809-3.733a7.643,7.643,0,0,1,7.48-9.466h19.135c3.971,0,5.012.945,7.752,6.916Z" transform="translate(-102.491 -113.736)" fill="#ebebeb"/>
      <path id="Path_37176" data-name="Path 37176" d="M358,264.78h29.852a4.182,4.182,0,0,1,4.182,4.182v.143a1.523,1.523,0,0,1-1.523,1.523H358V264.78Z" transform="translate(-114.56 -122.13)" fill="#ebebeb"/>
      <rect id="Rectangle_21155" data-name="Rectangle 21155" width="52.816" height="61.594" transform="translate(239.04 17.082)" fill="#ebebeb"/>
      <rect id="Rectangle_21156" data-name="Rectangle 21156" width="56.46" height="61.594" transform="translate(239.836 17.082)" fill="#ebebeb"/>
      <rect id="Rectangle_21157" data-name="Rectangle 21157" width="51.884" height="46.75" transform="translate(291.441 21.93) rotate(90)" fill="#fff"/>
      <rect id="Rectangle_21158" data-name="Rectangle 21158" width="7.521" height="23.358" transform="translate(271.83 67.449) rotate(180)" fill="#e8eaef"/>
      <rect id="Rectangle_21159" data-name="Rectangle 21159" width="7.521" height="10.934" transform="translate(284.621 67.442) rotate(180)" fill="#e8eaef"/>
      <rect id="Rectangle_21160" data-name="Rectangle 21160" width="7.521" height="6.671" transform="translate(284.621 56.515) rotate(180)" fill="#ebebeb"/>
      <rect id="Rectangle_21161" data-name="Rectangle 21161" width="7.521" height="14.246" transform="translate(271.83 44.084) rotate(180)" fill="#ebebeb"/>
      <rect id="Rectangle_21162" data-name="Rectangle 21162" width="7.521" height="19.108" transform="translate(259.039 67.442) rotate(180)" fill="#e8eaef"/>
      <rect id="Rectangle_21163" data-name="Rectangle 21163" width="7.521" height="8.758" transform="translate(259.039 48.334) rotate(180)" fill="#ebebeb"/>
    </g>
    <g id="freepik--Shadow--inject-67" transform="translate(38.155 292.946)">
      <ellipse id="freepik--path--inject-67" cx="131.845" cy="7.698" rx="131.845" ry="7.698" fill="#ebebeb"/>
    </g>
    <g id="freepik--Character--inject-67" transform="translate(117.326 83.492)">
      <path id="Path_37177" data-name="Path 37177" d="M246.37,400.4l6.018.054L255.6,386.5l-6.025-.054Z" transform="translate(-196.165 -189.556)" fill="#ffc3bd"/>
      <path id="Path_37178" data-name="Path 37178" d="M251.317,405.974l-6.582-.054a.565.565,0,0,0-.544.408l-1.591,5.338a.816.816,0,0,0,.789,1.081c2.38,0,5.821-.129,8.84-.1,3.488.034,4.209.245,8.3.286,2.468,0,3.346-2.475,2.326-2.72-4.638-1.074-6.2-1.217-10.084-3.767a2.639,2.639,0,0,0-1.455-.469Z" transform="translate(-194.944 -195.786)" fill="#2a2e41"/>
      <path id="Path_37179" data-name="Path 37179" d="M256.32,386.514l-1.646,7.188-6.025-.054,1.646-7.188Z" transform="translate(-196.894 -189.559)" fill="#171b2a" opacity="0.2"/>
      <path id="Path_37180" data-name="Path 37180" d="M258.14,406.877a9.815,9.815,0,0,1-1.924-.231.14.14,0,0,1-.034-.265c.286-.143,2.815-1.36,3.509-.925a.435.435,0,0,1,.2.381.864.864,0,0,1-.32.68,2.38,2.38,0,0,1-1.435.36Zm-1.428-.4a4,4,0,0,0,2.72-.143.557.557,0,0,0,.218-.469.143.143,0,0,0-.068-.136C259.167,405.47,257.738,405.98,256.712,406.476Z" transform="translate(-199.278 -195.608)" fill="#ff794e"/>
      <path id="Path_37181" data-name="Path 37181" d="M256.242,405.979a.143.143,0,0,1-.088-.034.15.15,0,0,1-.054-.136c0-.109.476-2.72,1.911-2.543.381.048.483.238.51.388.1.68-1.448,1.986-2.224,2.312Zm1.646-2.434c-.864,0-1.3,1.408-1.448,2.04.8-.449,1.856-1.469,1.8-1.877,0,0,0-.116-.258-.143Z" transform="translate(-199.278 -194.934)" fill="#ff794e"/>
      <path id="Path_37182" data-name="Path 37182" d="M295.618,164.63c.088,3.665.218,7.48.394,11.193.082,1.863.184,3.726.313,5.576s.279,3.692.483,5.508q.129,1.36.326,2.72l.088.68v.041h0v.2a3.216,3.216,0,0,0,.986,1.068,12.792,12.792,0,0,0,1.877,1.176,54.862,54.862,0,0,0,10,3.57l-.367,4.6a37.524,37.524,0,0,1-6.12-.136c-1.027-.1-2.04-.245-3.087-.442a25.119,25.119,0,0,1-3.148-.8,17.263,17.263,0,0,1-3.257-1.36,11.818,11.818,0,0,1-3.346-2.666,8.507,8.507,0,0,1-1.36-2.292c-.1-.218-.17-.456-.245-.68l-.1-.354-.082-.306-.156-.748c-.231-.993-.428-1.986-.605-2.972-.714-3.951-1.149-7.854-1.469-11.764-.136-1.952-.279-3.9-.333-5.855s-.129-3.883-.1-5.9Z" transform="translate(-208.944 -118.573)" fill="#ffc3bd"/>
      <path id="Path_37183" data-name="Path 37183" d="M282.99,161.771c-.857,6.834.721,16.925.721,16.925a25.326,25.326,0,0,0,8.466-.3c3.706-.979,4.488-1.707,4.488-1.707a39.834,39.834,0,0,0,.109-14.232c-1.489-7.718-7.691-10.649-11.982-5.936C283.833,157.589,283.276,159.52,282.99,161.771Z" transform="translate(-207.801 -115.252)" fill="#7aa3ff"/>
      <path id="Path_37184" data-name="Path 37184" d="M283.715,170.075a35.65,35.65,0,0,0-.925,3.516,96.493,96.493,0,0,0,.938,10.1,26.574,26.574,0,0,0,7.888-.15c.109-1.306.177-2.72.17-4.128C291.773,172.876,287.944,168.987,283.715,170.075Z" transform="translate(-207.819 -120.257)" fill="#171b2a" opacity="0.2"/>
      <path id="Path_37185" data-name="Path 37185" d="M317.537,210.626l4.712-.306-.231,5.97a7.555,7.555,0,0,1-5.848-1.836Z" transform="translate(-218.501 -133.194)" fill="#ffc3bd"/>
      <path id="Path_37186" data-name="Path 37186" d="M329.8,213.078l-.877,2.462a1.544,1.544,0,0,1-1.639,1.027l-2.516-.286.231-5.97,3.638.714a1.564,1.564,0,0,1,1.163,2.054Z" transform="translate(-221.253 -133.191)" fill="#ffc3bd"/>
      <rect id="Rectangle_21164" data-name="Rectangle 21164" width="3.359" height="8.616" rx="1.18" transform="translate(104.345 74.9) rotate(29.13)" fill="#2a2e41"/>
      <rect id="Rectangle_21165" data-name="Rectangle 21165" width="4.066" height="3.672" rx="0.64" transform="translate(100.504 81.058) rotate(29.13)" fill="#2a2e41"/>
      <path id="Path_37187" data-name="Path 37187" d="M329.792,201.021a9.907,9.907,0,0,1-4.835-1.258,10.56,10.56,0,1,1,14.062-4.243h0a10.628,10.628,0,0,1-9.228,5.5Zm.6-19.5a9.187,9.187,0,0,0-7.963,4.76,8.779,8.779,0,1,0,15.327,8.541h0a8.962,8.962,0,0,0-3.23-12.24,8.459,8.459,0,0,0-4.134-1.047Z" transform="translate(-219.482 -123.433)" fill="#2a2e41"/>
      <path id="Path_37188" data-name="Path 37188" d="M270.464,228.578s3.087,34,2.19,52.6c-.932,19.285-14.613,57.365-14.613,57.365l-10.88-.231s7.48-41.908,7.276-61.1c-.2-20.93-2.128-52.272-2.128-52.272Z" transform="translate(-196.417 -137.872)" fill="#2a2e41"/>
      <path id="Path_37189" data-name="Path 37189" d="M258.968,237.651c-1.244-1.469-2.36-.068-3.3,2.659.388,7.33.857,17.231,1.163,26.826C262.144,259.057,262.973,242.4,258.968,237.651Z" transform="translate(-199.141 -141.75)" fill="#171b2a" opacity="0.2"/>
      <path id="Path_37190" data-name="Path 37190" d="M245.19,390.436l12.8.258,1.367-4.25-13.362-.034Z" transform="translate(-195.787 -189.543)" fill="#ff794e"/>
      <path id="Path_37191" data-name="Path 37191" d="M245.19,390.436l12.8.258,1.367-4.25-13.362-.034Z" transform="translate(-195.787 -189.543)" fill="#7aa3ff"/>
      <path id="Path_37192" data-name="Path 37192" d="M180.07,367.621l4.556,3.944L194.914,362l-4.563-3.944Z" transform="translate(-174.949 -180.471)" fill="#ffc3bd"/>
      <path id="Path_37193" data-name="Path 37193" d="M182.617,375.449l-3.441-5.576a.578.578,0,0,0-.632-.252l-5.372,1.482a.816.816,0,0,0-.5,1.238c1.278,2.006,3.2,4.869,4.76,7.419,1.822,2.972,1.809,2.924,3.951,6.412,1.292,2.115,3.869,1.53,3.529.544-1.55-4.5-2.04-5.127-1.945-9.772a2.611,2.611,0,0,0-.347-1.5Z" transform="translate(-172.538 -184.165)" fill="#2a2e41"/>
      <path id="Path_37194" data-name="Path 37194" d="M197.25,362l-5.3,4.93-4.563-3.944,5.3-4.93Z" transform="translate(-177.291 -180.471)" fill="#171b2a" opacity="0.2"/>
      <path id="Path_37195" data-name="Path 37195" d="M187.606,381.226a10.038,10.038,0,0,1-.83-1.754.15.15,0,0,1,.048-.163.143.143,0,0,1,.163,0c.272.17,2.645,1.68,2.645,2.5a.428.428,0,0,1-.218.374.857.857,0,0,1-.755.1,2.319,2.319,0,0,1-1.054-1.047Zm-.4-1.448c.5,1.224,1.061,2.04,1.544,2.21a.551.551,0,0,0,.51-.068c.075-.048.088-.1.088-.129-.027-.442-1.224-1.38-2.169-2.02Z" transform="translate(-177.092 -187.262)" fill="#ff794e"/>
      <path id="Path_37196" data-name="Path 37196" d="M186.758,379.307a.191.191,0,0,1,0-.088.143.143,0,0,1,.088-.116c.1-.041,2.543-1.027,3.169.272.163.347.054.537-.061.639-.524.442-2.448-.184-3.135-.68Zm2.931.116c-.456-.734-1.877-.354-2.482-.156.8.435,2.23.789,2.543.53,0,0,.088-.082,0-.3a.279.279,0,0,0-.061-.075Z" transform="translate(-177.087 -187.078)" fill="#ff794e"/>
      <path id="Path_37197" data-name="Path 37197" d="M240.791,225.048s-5.732,31.851-9.84,49.987c-4.264,18.863-33.891,47.328-33.891,47.328l-8.16-7.228s21.638-28.261,24.779-47.192c3.4-20.645,6.521-47.042,6.521-47.042Z" transform="translate(-177.774 -136.58)" fill="#2a2e41"/>
      <path id="Path_37198" data-name="Path 37198" d="M186.52,357.77l9.3,8.33,3.162-2.659-9.812-9.432Z" transform="translate(-177.013 -179.175)" fill="#ff794e"/>
      <path id="Path_37199" data-name="Path 37199" d="M186.52,357.77l9.3,8.33,3.162-2.659-9.812-9.432Z" transform="translate(-177.013 -179.175)" fill="#7aa3ff"/>
      <path id="Path_37200" data-name="Path 37200" d="M276.521,151.787s3.4,19.251-9.948,51.15L235,196.565c.762-4.9,8.582-27.948,8.514-51.755a84.537,84.537,0,0,1,10.88.8,118.112,118.112,0,0,1,13.437,2.72,60.125,60.125,0,0,1,8.69,3.461Z" transform="translate(-192.526 -112.231)" fill="#7aa3ff"/>
      <path id="Path_37201" data-name="Path 37201" d="M281.259,183.326c-.428,6.229-4.6,11.084-9.241,10.771a6.963,6.963,0,0,1-4.128-1.8l1.319-2.57a5.052,5.052,0,0,0,3.019,1.319c3.4.231,6.446-3.318,6.752-7.874Z" transform="translate(-203.051 -124.506)" fill="#2a2e41" opacity="0.2"/>
      <path id="Path_37202" data-name="Path 37202" d="M285.64,179.211l-2.278-.156a10.6,10.6,0,0,0-.347-3.543,8.33,8.33,0,0,0-1.435-2.958l1.625-2.244a11.6,11.6,0,0,1,1.965,4.08,14.96,14.96,0,0,1,.469,4.821Z" transform="translate(-207.432 -120.391)" fill="#fff" opacity="0.5"/>
      <path id="Path_37203" data-name="Path 37203" d="M281.418,168.87l-1.625,2.244a5.977,5.977,0,0,0-1.775-1.571,4.991,4.991,0,0,0-2.088-.68l.211-3.053a6.617,6.617,0,0,1,2.849.891,8.324,8.324,0,0,1,2.428,2.169Z" transform="translate(-205.624 -118.951)" fill="#2a2e41" opacity="0.4"/>
      <path id="Path_37204" data-name="Path 37204" d="M271.868,165.843l-.211,3.053c-3.4-.231-6.44,3.325-6.746,7.881a9.134,9.134,0,0,0,2.6,7.4l-1.319,2.57c-2.482-2.21-3.842-6.072-3.563-10.125C263.055,170.392,267.223,165.53,271.868,165.843Z" transform="translate(-201.357 -118.957)" fill="#fff" opacity="0.2"/>
      <path id="Path_37205" data-name="Path 37205" d="M245.59,165.764c-.292,2.394-.632,4.76-1,7.011,2.638-1.224,6.242-7.7,5.855-11.274Z" transform="translate(-195.595 -117.572)" fill="#171b2a" opacity="0.2"/>
      <path id="Path_37206" data-name="Path 37206" d="M267.8,124.13c0,4.495-.775,12.587-4.379,14.858,0,0,1.217,5,10.52,8.4,4.563-2.04,2.917-5.685,2.917-5.685-4.59-2.128-3.747-5.678-2.224-8.84Z" transform="translate(-201.621 -105.613)" fill="#ffc3bd"/>
      <path id="Path_37207" data-name="Path 37207" d="M273.725,129.35l4.039,5.148a14.552,14.552,0,0,0-.9,2.305c-1.782-.639-3.91-3.169-3.713-5.141a6.466,6.466,0,0,1,.571-2.312Z" transform="translate(-204.731 -107.284)" fill="#171b2a" opacity="0.2"/>
      <path id="Path_37208" data-name="Path 37208" d="M289.11,117.426c.843-2.04.966-4.379-.68-5.936a6.751,6.751,0,0,1,2.5-4.121C292.938,106.261,296.978,113.979,289.11,117.426Z" transform="translate(-209.624 -100.215)" fill="#2a2e41"/>
      <path id="Path_37209" data-name="Path 37209" d="M292.58,109.832a.68.68,0,1,1,0-1.36h0a4.8,4.8,0,0,0,4.236-3.808.68.68,0,1,1,1.312.36,6.215,6.215,0,0,1-5.5,4.808Z" transform="translate(-210.734 -99.224)" fill="#2a2e41"/>
      <path id="Path_37210" data-name="Path 37210" d="M270.616,111.057c-.823,5.923-1.6,9.35.748,12.954,3.536,5.44,11.3,4.189,13.872-1.36,2.319-5,3.271-13.852-1.986-17.34a8.16,8.16,0,0,0-12.634,5.746Z" transform="translate(-203.662 -99.149)" fill="#ffc3bd"/>
      <path id="Path_37211" data-name="Path 37211" d="M267,114.056a11.269,11.269,0,0,1,2.04.245,1.108,1.108,0,0,0,1.36-1.163,3.413,3.413,0,0,1,1.612-3.563,4.474,4.474,0,0,0-.762-3.087.68.68,0,0,1,.789-.932c2.951,1.142,7.405,2.938,9.642,1.775,2.9-1.51,6.229-6.9,1.843-7.269-2.1-.17-1.863-1.36-3.448-2.448s-5.44-.945-8.384.51-7.48-1.244-9.207.9a4.28,4.28,0,0,0-.483,3.8s-2.523.34-2.951,5.1c-.32,3.563,5.392,10.309,7.174,11.03C267.262,115.273,267,114.056,267,114.056Z" transform="translate(-200.219 -96.899)" fill="#2a2e41"/>
      <path id="Path_37212" data-name="Path 37212" d="M262.694,106.65a.68.68,0,0,1-.639-.456,1.87,1.87,0,0,0-2.6-1.095.68.68,0,0,1-.442-1.285,3.4,3.4,0,0,1,2.679.061,3.55,3.55,0,0,1,1.646,1.877.672.672,0,0,1-.646.9Z" transform="translate(-200.072 -99.034)" fill="#2a2e41"/>
      <path id="Path_37213" data-name="Path 37213" d="M283.6,119.095c-.1.476.075.911.388.972s.646-.272.741-.748-.082-.911-.394-.972S283.693,118.619,283.6,119.095Z" transform="translate(-208.069 -103.76)" fill="#2a2e41"/>
      <path id="Path_37214" data-name="Path 37214" d="M291.518,120.691c-.1.476.082.911.388.972s.646-.272.741-.748-.082-.911-.388-.979S291.613,120.208,291.518,120.691Z" transform="translate(-210.604 -104.268)" fill="#2a2e41"/>
      <path id="Path_37215" data-name="Path 37215" d="M288.514,120.89a17.483,17.483,0,0,0,1.455,4.536,2.866,2.866,0,0,1-2.36,0Z" transform="translate(-209.361 -104.576)" fill="#ed847e"/>
      <path id="Path_37216" data-name="Path 37216" d="M283.77,127.84h0a4.08,4.08,0,0,1-2.985-2.271.143.143,0,0,1,.075-.184.15.15,0,0,1,.19.082,3.869,3.869,0,0,0,2.781,2.094.143.143,0,0,1-.061.279Z" transform="translate(-207.174 -106.012)" fill="#2a2e41"/>
      <path id="Path_37217" data-name="Path 37217" d="M284.134,115.207a.258.258,0,0,1,.1.156.286.286,0,0,1-.2.347,2.842,2.842,0,0,1-2.564-.476.287.287,0,1,1,.381-.428h0a2.237,2.237,0,0,0,2.04.354A.32.32,0,0,1,284.134,115.207Z" transform="translate(-207.367 -102.606)" fill="#2a2e41"/>
      <path id="Path_37218" data-name="Path 37218" d="M295.007,116.412a.272.272,0,0,1-.265-.163,2.292,2.292,0,0,0-1.6-1.306.286.286,0,0,1-.245-.32.292.292,0,0,1,.326-.245,2.849,2.849,0,0,1,2.04,1.625.286.286,0,0,1-.136.381A.259.259,0,0,1,295.007,116.412Z" transform="translate(-211.053 -102.492)" fill="#2a2e41"/>
      <path id="Path_37219" data-name="Path 37219" d="M242.093,157.13c-1.414,1.476-2.944,3.06-4.379,4.631s-2.9,3.162-4.3,4.76a119.129,119.129,0,0,0-7.888,9.874l-.857,1.244a4.686,4.686,0,0,0-.456.789,7.309,7.309,0,0,0-.571,2.04,16.393,16.393,0,0,0,.326,5.3,50.822,50.822,0,0,0,4.168,11.56l-3.788,2.638c-.816-.945-1.5-1.829-2.19-2.788a32.6,32.6,0,0,1-1.931-2.938,36.515,36.515,0,0,1-3.114-6.5A22.08,22.08,0,0,1,215.75,180a14.762,14.762,0,0,1,.734-4.434,13.288,13.288,0,0,1,.972-2.19l.9-1.564c.592-1.027,1.224-1.986,1.85-2.972s1.3-1.918,1.979-2.842c1.326-1.884,2.72-3.672,4.175-5.44s2.924-3.475,4.454-5.148,3.053-3.3,4.76-4.93Z" transform="translate(-186.366 -114.045)" fill="#ffc3bd"/>
      <path id="Path_37220" data-name="Path 37220" d="M240.724,144.807c-5.76.211-14.334,16.1-14.334,16.1,1.129,2.72,6.059,7.018,8.677,7.718,0,0,6.848-4.359,10.574-10.805C249.544,151.057,246.892,144.583,240.724,144.807Z" transform="translate(-189.771 -112.228)" fill="#7aa3ff"/>
      <path id="Path_37221" data-name="Path 37221" d="M230.3,217.48l6.365,1.19-5.08,5.739s-4.352-1.924-4.359-4.277Z" transform="translate(-190.04 -135.485)" fill="#ffc3bd"/>
      <path id="Path_37222" data-name="Path 37222" d="M240.535,225.274l-1.3,1.36a2.53,2.53,0,0,1-3.434.177l-2.162-1.8,5.08-5.739,2.04,2.761A2.536,2.536,0,0,1,240.535,225.274Z" transform="translate(-192.091 -136.058)" fill="#ffc3bd"/>
      <path id="Path_37223" data-name="Path 37223" d="M266,119.178a5.664,5.664,0,0,0,1.6,4.039c1.394,1.428,3.087.415,3.522-1.421.4-1.652.15-4.386-1.652-5.12A2.545,2.545,0,0,0,266,119.178Z" transform="translate(-202.446 -103.164)" fill="#ffc3bd"/>
    </g>
    <g id="freepik--Data--inject-67" transform="translate(49.286 171.266)">
      <rect id="Rectangle_21166" data-name="Rectangle 21166" width="16.184" height="24.079" rx="4.26" transform="translate(0 71.06)" fill="#ff794e"/>
      <rect id="Rectangle_21167" data-name="Rectangle 21167" width="16.184" height="36.89" rx="4.26" transform="translate(18.775 58.242)" fill="#ff794e"/>
      <rect id="Rectangle_21168" data-name="Rectangle 21168" width="16.184" height="31.334" rx="4.26" transform="translate(37.543 63.804)" fill="#ff794e"/>
      <rect id="Rectangle_21169" data-name="Rectangle 21169" width="16.184" height="39.27" rx="4.26" transform="translate(56.311 55.869)" fill="#ff794e"/>
      <rect id="Rectangle_21170" data-name="Rectangle 21170" width="16.184" height="47.654" rx="4.26" transform="translate(75.079 47.484)" fill="#ff794e"/>
      <rect id="Rectangle_21171" data-name="Rectangle 21171" width="16.184" height="56.494" rx="4.26" transform="translate(93.854 38.644)" fill="#ff794e"/>
      <rect id="Rectangle_21172" data-name="Rectangle 21172" width="16.184" height="43.119" rx="4.26" transform="translate(112.622 52.02)" fill="#ff794e"/>
      <rect id="Rectangle_21173" data-name="Rectangle 21173" width="16.184" height="60.35" rx="4.26" transform="translate(131.39 34.789)" fill="#ff794e"/>
      <rect id="Rectangle_21174" data-name="Rectangle 21174" width="16.184" height="65.559" rx="4.26" transform="translate(150.158 29.58)" fill="#ff794e"/>
      <rect id="Rectangle_21175" data-name="Rectangle 21175" width="16.184" height="62.39" rx="4.26" transform="translate(168.932 32.749)" fill="#ff794e"/>
      <rect id="Rectangle_21176" data-name="Rectangle 21176" width="16.184" height="80.94" rx="4.26" transform="translate(187.7 14.198)" fill="#ff794e"/>
      <rect id="Rectangle_21177" data-name="Rectangle 21177" width="16.184" height="73.236" rx="4.26" transform="translate(206.468 21.903)" fill="#ff794e"/>
      <rect id="Rectangle_21178" data-name="Rectangle 21178" width="16.184" height="92.011" rx="4.26" transform="translate(225.236 3.128)" fill="#ff794e"/>
      <path id="Path_37224" data-name="Path 37224" d="M84.236,345.635a.354.354,0,0,1-.265-.17.347.347,0,0,1,.075-.476l.823-.6a.347.347,0,0,1,.476.075.333.333,0,0,1-.075.476l-.823.6A.361.361,0,0,1,84.236,345.635Z" transform="translate(-76.137 -263.851)" fill="#2a2e41"/>
      <path id="Path_37225" data-name="Path 37225" d="M89.5,318.827a.333.333,0,0,1-.279-.143.347.347,0,0,1,.075-.476l1.659-1.2a.341.341,0,1,1,.4.551l-1.625,1.2A.313.313,0,0,1,89.5,318.827Zm4.413-3.216a.333.333,0,0,1-.272-.143.34.34,0,0,1,.075-.469l1.659-1.21a.34.34,0,0,1,.469.075.333.333,0,0,1-.075.476l-1.652,1.2A.319.319,0,0,1,93.912,315.611Zm4.42-3.216a.361.361,0,0,1-.279-.136.347.347,0,0,1,.075-.476l1.659-1.21a.341.341,0,0,1,.4.551l-1.659,1.21a.354.354,0,0,1-.2.1Zm4.413-3.216a.34.34,0,0,1-.2-.612l1.659-1.2a.336.336,0,0,1,.394.544l-1.652,1.21A.361.361,0,0,1,102.746,309.178Zm4.42-3.21a.354.354,0,0,1-.279-.143.34.34,0,0,1,.082-.476l1.652-1.2a.341.341,0,1,1,.4.551l-1.659,1.2A.361.361,0,0,1,107.166,305.968Zm4.42-3.216a.333.333,0,0,1-.279-.143.347.347,0,0,1,.075-.476l1.659-1.2a.34.34,0,0,1,.469.075.333.333,0,0,1-.075.476l-1.652,1.2A.313.313,0,0,1,111.586,302.752ZM116,299.535a.326.326,0,0,1-.272-.143.333.333,0,0,1,.075-.476l1.652-1.2a.341.341,0,0,1,.4.551l-1.659,1.2a.306.306,0,0,1-.2.041Zm4.42-3.216a.34.34,0,0,1-.2-.612l1.659-1.21a.341.341,0,1,1,.4.551l-1.659,1.2a.313.313,0,0,1-.2.068Zm4.413-3.216a.34.34,0,0,1-.2-.612l1.652-1.2a.333.333,0,0,1,.476.075.34.34,0,0,1-.075.469l-1.659,1.21a.34.34,0,0,1-.2.061Zm4.42-3.216a.34.34,0,0,1-.2-.612l1.659-1.2a.333.333,0,0,1,.476.075.347.347,0,0,1-.075.476l-1.659,1.2a.353.353,0,0,1-.2.061Zm4.413-3.21a.34.34,0,0,1-.272-.143.333.333,0,0,1,.075-.476l1.652-1.2a.34.34,0,0,1,.476.075.347.347,0,0,1-.075.476l-1.652,1.183a.387.387,0,0,1-.2.088Zm4.42-3.216a.333.333,0,0,1-.279-.143.347.347,0,0,1,.075-.476l1.659-1.2a.341.341,0,0,1,.4.551l-1.659,1.2a.313.313,0,0,1-.2.068Zm4.413-3.216a.333.333,0,0,1-.272-.143.326.326,0,0,1,.075-.469l1.652-1.21a.341.341,0,1,1,.4.551l-1.652,1.2a.333.333,0,0,1-.2.068Zm4.42-3.216a.337.337,0,0,1-.2-.612l1.659-1.21a.341.341,0,0,1,.4.551l-1.659,1.21a.354.354,0,0,1-.2.061Zm4.413-3.216a.347.347,0,0,1-.272-.136.34.34,0,0,1,.075-.476l1.652-1.2a.34.34,0,1,1,.4.544l-1.652,1.21a.374.374,0,0,1-.2.061Zm4.42-3.21a.354.354,0,0,1-.279-.143.347.347,0,0,1,.075-.476l1.659-1.2a.34.34,0,0,1,.476.075.347.347,0,0,1-.075.476l-1.659,1.2a.36.36,0,0,1-.2.068Z" transform="translate(-77.817 -239.655)" fill="#2a2e41"/>
      <path id="Path_37226" data-name="Path 37226" d="M193.421,266.156a.354.354,0,0,1-.272-.143.34.34,0,0,1,.075-.476l.823-.6a.333.333,0,0,1,.286-.054l.986.252a.35.35,0,0,1-.17.68l-.83-.211-.68.5A.367.367,0,0,1,193.421,266.156Z" transform="translate(-111.073 -238.426)" fill="#2a2e41"/>
      <path id="Path_37227" data-name="Path 37227" d="M271.7,274.834h-.054l-1.931-.5a.35.35,0,0,1,.17-.68l1.877.483a.34.34,0,0,1,.286.163.313.313,0,0,1-.1.449A.571.571,0,0,1,271.7,274.834Zm-5.209-1.36H266.4l-1.986-.51a.35.35,0,1,1,.17-.68l1.986.51a.342.342,0,0,1-.082.68Zm8.255-.374a.333.333,0,0,1-.3-.177.347.347,0,0,1,.129-.462l1.775-1.02a.347.347,0,0,1,.469.129.34.34,0,0,1-.129.462l-1.775,1.02a.4.4,0,0,1-.17.061Zm-13.552-.993h-.088l-1.986-.51a.35.35,0,0,1,.17-.68l1.986.51a.342.342,0,0,1-.082.68Zm-5.3-1.36h-.088l-1.986-.51a.347.347,0,0,1-.245-.415.34.34,0,0,1,.415-.245l1.986.51a.342.342,0,1,1-.082.68Zm23.6-.36a.333.333,0,0,1-.3-.177.34.34,0,0,1,.129-.462l1.775-1.02a.34.34,0,0,1,.469.129.347.347,0,0,1-.129.462l-1.782,1.02a.347.347,0,0,1-.163.054ZM250.6,269.381h-.082l-1.986-.51a.34.34,0,0,1-.245-.415.333.333,0,0,1,.415-.245l1.986.51a.343.343,0,0,1-.088.68Zm-5.3-1.36h-.082l-1.986-.51a.35.35,0,1,1,.17-.68l1.986.51a.343.343,0,0,1-.088.68Zm38.93-.347a.333.333,0,0,1-.292-.177.34.34,0,0,1,.122-.462l1.782-1.02a.341.341,0,1,1,.34.592l-1.782,1.02a.374.374,0,0,1-.17.048Zm-44.2-1.02h-.082l-1.986-.51a.35.35,0,1,1,.17-.68l1.986.51a.343.343,0,0,1-.088.68Zm-5.29-1.36h-.088l-1.986-.51a.35.35,0,1,1,.17-.68l1.986.51a.342.342,0,1,1-.082.68Zm54.264-.333a.343.343,0,0,1-.17-.639l1.782-1.02a.341.341,0,1,1,.34.592l-1.782,1.02a.374.374,0,0,1-.2.041Zm-59.575-1.04h-.088l-1.986-.51a.35.35,0,0,1,.17-.68l1.986.51a.342.342,0,1,1-.082.68Zm-5.3-1.36h-.088l-1.986-.51a.347.347,0,0,1-.245-.415.34.34,0,0,1,.415-.245l1.986.51a.342.342,0,1,1-.082.68Zm69.6-.32a.342.342,0,0,1-.17-.639l1.782-1.02a.341.341,0,1,1,.34.592l-1.782,1.02a.374.374,0,0,1-.184.041Zm-74.916-1.054h-.082l-1.992-.51a.34.34,0,0,1-.238-.415.333.333,0,0,1,.408-.245l1.992.51a.343.343,0,0,1-.088.68Zm-5.3-1.36h-.082l-1.986-.51a.35.35,0,1,1,.17-.68l1.986.51a.343.343,0,1,1-.088.68Zm84.946-.306a.342.342,0,0,1-.17-.639l1.782-1.02a.34.34,0,1,1,.333.592l-1.775,1.02a.4.4,0,0,1-.17.041Zm-90.243-1.061h-.082l-1.986-.51a.35.35,0,0,1,.17-.68l1.986.51a.343.343,0,1,1-.088.68Zm-5.29-1.36h-.088l-1.986-.51a.35.35,0,0,1,.17-.68l1.986.51a.342.342,0,0,1-.082.68Zm100.28-.292a.333.333,0,0,1-.3-.177.347.347,0,0,1,.129-.462l1.782-1.02a.333.333,0,0,1,.462.129.34.34,0,0,1-.129.462l-1.775,1.02a.4.4,0,0,1-.17.034Zm4.76-2.72a.333.333,0,0,1-.3-.177.34.34,0,0,1,.129-.462l1.775-1.02a.341.341,0,0,1,.34.592l-1.782,1.02a.347.347,0,0,1-.177.034Zm4.76-2.72a.333.333,0,0,1-.292-.177.34.34,0,0,1,.122-.462l1.782-1.02a.341.341,0,1,1,.34.592l-1.782,1.02a.374.374,0,0,1-.2.034Zm4.76-2.72a.343.343,0,0,1-.17-.639l1.782-1.02a.341.341,0,1,1,.34.592l-1.782,1.02a.374.374,0,0,1-.218.034Zm4.76-2.72a.342.342,0,0,1-.17-.639l1.782-1.02a.341.341,0,0,1,.34.592l-1.782,1.02a.374.374,0,0,1-.231.034Zm4.76-2.72a.342.342,0,0,1-.17-.639l1.782-1.02a.34.34,0,1,1,.333.592l-1.775,1.02a.4.4,0,0,1-.245.034Zm4.76-2.72a.34.34,0,0,1-.3-.177.347.347,0,0,1,.129-.462l1.782-1.02a.333.333,0,0,1,.462.129.34.34,0,0,1-.129.462l-1.775,1.02a.4.4,0,0,1-.258.034Zm4.76-2.72a.333.333,0,0,1-.3-.177.34.34,0,0,1,.129-.462l1.775-1.02a.34.34,0,0,1,.469.129.347.347,0,0,1-.129.462l-1.782,1.02a.347.347,0,0,1-.265.034Zm4.76-2.72a.333.333,0,0,1-.292-.177.34.34,0,0,1,.129-.462l1.775-1.02a.341.341,0,1,1,.34.592L341.469,235a.374.374,0,0,1-.292.034Z" transform="translate(-113.478 -228.336)" fill="#2a2e41"/>
      <path id="Path_37228" data-name="Path 37228" d="M414.15,231.272a.342.342,0,0,1-.17-.639l.891-.5a.337.337,0,0,1,.333.585l-.884.51a.374.374,0,0,1-.17.048Z" transform="translate(-181.706 -227.294)" fill="#2a2e41"/>
      <path id="Path_37229" data-name="Path 37229" d="M85.86,344.435a2.795,2.795,0,1,1-2.788-2.795A2.795,2.795,0,0,1,85.86,344.435Z" transform="translate(-74.973 -262.991)" fill="#fff"/>
      <path id="Path_37230" data-name="Path 37230" d="M82.912,347.4a3.135,3.135,0,1,1,3.128-3.128A3.135,3.135,0,0,1,82.912,347.4Zm0-5.583a2.455,2.455,0,1,0,2.448,2.455,2.455,2.455,0,0,0-2.448-2.455Z" transform="translate(-74.813 -262.828)" fill="#2a2e41"/>
      <circle id="Ellipse_2251" data-name="Ellipse 2251" cx="2.788" cy="2.788" r="2.788" transform="translate(80.39 23.997)" fill="#fff"/>
      <path id="Path_37231" data-name="Path 37231" d="M193.322,267.05a3.135,3.135,0,1,1,3.128-3.135A3.135,3.135,0,0,1,193.322,267.05Zm0-5.583a2.455,2.455,0,1,0,0-.014Z" transform="translate(-110.144 -237.116)" fill="#2a2e41"/>
      <circle id="Ellipse_2252" data-name="Ellipse 2252" cx="2.788" cy="2.788" r="2.788" transform="translate(155.462 43.377)" fill="#fff"/>
      <path id="Path_37232" data-name="Path 37232" d="M303.732,295.52a3.135,3.135,0,1,1,3.128-3.128A3.135,3.135,0,0,1,303.732,295.52Zm0-5.583a2.455,2.455,0,1,0,2.448,2.455A2.455,2.455,0,0,0,303.732,289.937Z" transform="translate(-145.475 -246.226)" fill="#2a2e41"/>
      <circle id="Ellipse_2253" data-name="Ellipse 2253" cx="2.788" cy="2.788" r="2.788" transform="translate(230.54 0.34)" fill="#fff"/>
      <path id="Path_37233" data-name="Path 37233" d="M414.141,232.236a3.128,3.128,0,1,1,3.135-3.128A3.128,3.128,0,0,1,414.141,232.236Zm0-5.576a2.441,2.441,0,1,1,0,.014Z" transform="translate(-180.813 -225.98)" fill="#2a2e41"/>
    </g>
  </g>
</svg>
