<svg id="Layer_2" data-name="Layer 2" xmlns="http://www.w3.org/2000/svg" xmlns:xlink="http://www.w3.org/1999/xlink" width="58" height="58" viewBox="0 0 58 58"><defs><style>.cls-1{fill:url(#linear-gradient);}.cls-2{fill:url(#linear-gradient-2);}.cls-3{fill:#fff;}</style><linearGradient id="linear-gradient" x1="29" y1="-358.785" x2="29" y2="-336.618" gradientTransform="matrix(1, 0, 0, -1, 0, -318.702)" gradientUnits="userSpaceOnUse"><stop offset="0" stop-color="#5a5a5a"/><stop offset="0.146" stop-color="#484848"/><stop offset="0.52" stop-color="#212121"/><stop offset="0.817" stop-color="#080808"/><stop offset="1"/></linearGradient><linearGradient id="linear-gradient-2" x1="18.923" y1="-343.337" x2="22.511" y2="-339.749" gradientTransform="matrix(1, 0, 0, -1, 0, -318.702)" gradientUnits="userSpaceOnUse"><stop offset="0" stop-color="#e52f08"/><stop offset="1" stop-color="#e94f96"/></linearGradient></defs><path class="cls-1" d="M50.444,17.809H7.556A2.534,2.534,0,0,0,5.02,20.343h0V37.657a2.534,2.534,0,0,0,2.536,2.534H50.444a2.534,2.534,0,0,0,2.536-2.534h0V20.343A2.535,2.535,0,0,0,50.444,17.809Z"/><path class="cls-2" d="M23.255,22.841a2.537,2.537,0,0,1-2.538,2.537h0a2.537,2.537,0,0,1-2.537-2.537h0A2.537,2.537,0,0,1,20.717,20.3h0a2.537,2.537,0,0,1,2.538,2.537Z"/><path class="cls-3" d="M42.767,37.212h3.654l-4.39-5.669,3.981-4.871H42.7l-3.909,4.9V21.121H35.953V37.212h2.836l0-5.625ZM30.6,26.67h2.836V37.21H30.6Zm-5.353-5.553h2.836V37.21H25.249Zm-7.374,5.448a5.352,5.352,0,0,0-2.544.638V21.118H12.494V31.943a5.381,5.381,0,1,0,5.382-5.378Zm0,7.968a2.589,2.589,0,1,1,2.589-2.59,2.589,2.589,0,0,1-2.589,2.59Z"/></svg>
