<svg width="24" height="24" viewBox="0 0 24 24" fill="none" xmlns="http://www.w3.org/2000/svg">
<g id="Regular/Eye">
<path id="Vector (Stroke)" fill-rule="evenodd" clip-rule="evenodd" d="M3.37193 7.63241C5.14669 5.59473 7.96127 3.5 12 3.5C16.0387 3.5 18.8533 5.59473 20.6281 7.63241C21.5156 8.65143 22.1544 9.66753 22.5717 10.4284C22.7807 10.8097 22.9354 11.1291 23.0388 11.3557C23.0905 11.4691 23.1295 11.5594 23.1561 11.6229C23.1694 11.6547 23.1797 11.6797 23.1869 11.6976L23.1954 11.719L23.198 11.7255L23.1988 11.7277C23.199 11.7281 23.1994 11.7293 22.5 12C23.1994 12.2707 23.1993 12.2711 23.1992 12.2714L23.198 12.2745L23.1954 12.281L23.1869 12.3024C23.1797 12.3203 23.1694 12.3453 23.1561 12.3771C23.1295 12.4406 23.0905 12.5309 23.0388 12.6443C22.9354 12.8709 22.7807 13.1903 22.5717 13.5716C22.1544 14.3325 21.5156 15.3486 20.6281 16.3676C18.8533 18.4053 16.0387 20.5 12 20.5C7.96127 20.5 5.14669 18.4053 3.37193 16.3676C2.4844 15.3486 1.8456 14.3325 1.42832 13.5716C1.21925 13.1903 1.0646 12.8709 0.961205 12.6443C0.909479 12.5309 0.870497 12.4406 0.84387 12.3771C0.830554 12.3453 0.820321 12.3203 0.813122 12.3024L0.80459 12.281L0.802017 12.2745L0.801152 12.2723C0.801018 12.2719 0.800568 12.2707 1.49999 12C0.800568 11.7293 0.80069 11.7289 0.800825 11.7286L0.802017 11.7255L0.80459 11.719L0.813122 11.6976C0.820321 11.6797 0.830554 11.6547 0.84387 11.6229C0.870497 11.5594 0.909479 11.4691 0.961205 11.3557C1.0646 11.1291 1.21925 10.8097 1.42832 10.4284C1.8456 9.66753 2.4844 8.65143 3.37193 7.63241ZM1.49999 12L0.800825 11.7286C0.733393 11.9028 0.733136 12.0965 0.800567 12.2707L1.49999 12ZM2.31602 12C2.31924 12.0071 2.32253 12.0143 2.32589 12.0217C2.41586 12.2189 2.55418 12.505 2.74354 12.8503C3.12314 13.5425 3.70308 14.4639 4.50305 15.3824C6.1033 17.2197 8.53872 19 12 19C15.4613 19 17.8967 17.2197 19.4969 15.3824C20.2969 14.4639 20.8768 13.5425 21.2564 12.8503C21.4458 12.505 21.5841 12.2189 21.6741 12.0217C21.6775 12.0143 21.6807 12.0071 21.684 12C21.6807 11.9929 21.6775 11.9857 21.6741 11.9783C21.5841 11.7811 21.4458 11.495 21.2564 11.1497C20.8768 10.4575 20.2969 9.53607 19.4969 8.61759C17.8967 6.78027 15.4613 5 12 5C8.53872 5 6.1033 6.78027 4.50305 8.61759C3.70308 9.53607 3.12314 10.4575 2.74354 11.1497C2.55418 11.495 2.41586 11.7811 2.32589 11.9783C2.32253 11.9857 2.31924 11.9929 2.31602 12ZM22.5 12L23.1992 12.2714C23.2666 12.0972 23.2669 11.9035 23.1994 11.7293L22.5 12Z" fill="#191C1F"/>
<path id="Vector (Stroke)_2" fill-rule="evenodd" clip-rule="evenodd" d="M12 9.75C10.7574 9.75 9.75 10.7574 9.75 12C9.75 13.2426 10.7574 14.25 12 14.25C13.2426 14.25 14.25 13.2426 14.25 12C14.25 10.7574 13.2426 9.75 12 9.75ZM8.25 12C8.25 9.92893 9.92893 8.25 12 8.25C14.0711 8.25 15.75 9.92893 15.75 12C15.75 14.0711 14.0711 15.75 12 15.75C9.92893 15.75 8.25 14.0711 8.25 12Z" fill="#191C1F"/>
</g>
</svg>
