<svg width="16" height="16" viewBox="0 0 16 16" fill="none" xmlns="http://www.w3.org/2000/svg">
<g id="Facebook" clip-path="url(#clip0_2811_6745)">
<path id="Vector" fill-rule="evenodd" clip-rule="evenodd" d="M8 0C12.4183 0 16 3.58173 16 8C16 12.4183 12.4183 16 8 16C3.58173 16 0 12.4183 0 8C0 3.58173 3.58173 0 8 0Z" fill="white"/>
<path id="Vector_2" d="M9.04144 15.933V9.75237H10.7849L11.016 7.5771H9.04144L9.04437 6.48827C9.04437 5.92091 9.0983 5.61705 9.91372 5.61705H11.0038V3.44141H9.25992C7.16524 3.44141 6.42808 4.4966 6.42808 6.27136V7.57726H5.12231V9.75274H6.42808V15.8453C6.93677 15.9466 7.46267 16.0001 8.00114 16.0001C8.34899 16.0001 8.69648 15.9777 9.04144 15.933Z" fill="#1B6392"/>
</g>
<defs>
<clipPath id="clip0_2811_6745">
<rect width="16" height="16" fill="white"/>
</clipPath>
</defs>
</svg>
