<svg id="Layer_2" data-name="Layer 2" xmlns="http://www.w3.org/2000/svg" width="58" height="58" viewBox="0 0 58 58"><defs><style>.cls-1{fill:#fff;}.cls-2,.cls-3{fill:#3c4043;}.cls-2{fill-rule:evenodd;}.cls-4{fill:#4285f4;}.cls-5{fill:#34a853;}.cls-6{fill:#fabb05;}.cls-7{fill:#e94235;}</style></defs><path class="cls-1" d="M39.241,18H18.708a11.667,11.667,0,1,0,0,23.333H39.241a11.667,11.667,0,1,0,0-23.333Z"/><path class="cls-2" d="M18.708,18H39.241a11.667,11.667,0,1,1,0,23.333H18.708a11.667,11.667,0,1,1,0-23.333ZM43.4,19.791a10.581,10.581,0,0,0-4.159-.846H18.708a10.581,10.581,0,0,0-4.159.846,10.815,10.815,0,0,0-5.717,5.716,10.648,10.648,0,0,0,0,8.319,10.815,10.815,0,0,0,5.717,5.716,10.563,10.563,0,0,0,4.159.846H39.241a10.563,10.563,0,0,0,4.159-.846,10.815,10.815,0,0,0,5.717-5.716,10.648,10.648,0,0,0,0-8.319A10.815,10.815,0,0,0,43.4,19.791Z"/><path class="cls-2" d="M27.959,34.024V30.489h1.85a2.673,2.673,0,0,0,1.919-.741,2.512,2.512,0,0,0,0-3.686,2.677,2.677,0,0,0-1.919-.753h-2.97v8.715Zm0-4.6V26.388h1.873a1.51,1.51,0,0,1,1.108,2.584,1.492,1.492,0,0,1-1.108.45Z"/><path class="cls-2" d="M37.421,28.529a2.772,2.772,0,0,0-1.96-.665,2.734,2.734,0,0,0-2.409,1.179l.986.618a1.7,1.7,0,0,1,1.481-.793,1.58,1.58,0,0,1,1.085.408,1.269,1.269,0,0,1,.461.992v.256a3.263,3.263,0,0,0-1.639-.367,2.941,2.941,0,0,0-1.867.548,1.764,1.764,0,0,0-.7,1.47,1.862,1.862,0,0,0,.665,1.458,2.4,2.4,0,0,0,1.651.584A2.13,2.13,0,0,0,37.024,33.2h.047v.828h1.068V30.349A2.362,2.362,0,0,0,37.421,28.529Zm-3.033,4.393a.885.885,0,0,1-.374-.729,1,1,0,0,1,.461-.823,1.916,1.916,0,0,1,1.138-.327,2.3,2.3,0,0,1,1.458.415,1.648,1.648,0,0,1-.554,1.23,1.778,1.778,0,0,1-1.26.525A1.372,1.372,0,0,1,34.388,32.922Z"/><path class="cls-3" d="M44.229,28.057l-3.734,8.586H39.34l1.389-3-2.462-5.582h1.219l1.774,4.281h.023l1.727-4.281Z"/><path class="cls-4" d="M23.5,29.784a5.863,5.863,0,0,0-.093-1.051H18.716v1.925h2.7a2.319,2.319,0,0,1-1,1.55v1.249h1.609A4.891,4.891,0,0,0,23.5,29.784Z"/><path class="cls-5" d="M20.417,32.209a3.027,3.027,0,0,1-4.505-1.584H14.251v1.288a5,5,0,0,0,4.466,2.752,4.77,4.77,0,0,0,3.31-1.208Z"/><path class="cls-6" d="M15.755,29.669a3.012,3.012,0,0,1,.157-.956V27.425h-1.66a5,5,0,0,0,0,4.489l1.66-1.289A3.008,3.008,0,0,1,15.755,29.669Z"/><path class="cls-7" d="M18.717,26.651a2.72,2.72,0,0,1,1.918.749l1.426-1.425a4.8,4.8,0,0,0-3.344-1.3,5,5,0,0,0-4.466,2.752l1.661,1.289A2.988,2.988,0,0,1,18.717,26.651Z"/></svg>