<svg id="_64px_check" data-name="64px_check" xmlns="http://www.w3.org/2000/svg" width="16" height="16" viewBox="0 0 16 16">
  <g id="Group_46383" data-name="Group 46383">
    <path id="Path_80217" data-name="Path 80217" d="M10,2a8,8,0,1,0,8,8A8,8,0,0,0,10,2Zm3.92,5.52L8.587,12.853a.258.258,0,0,1-.373,0L6.08,10.72a.264.264,0,1,1,.373-.373L8.4,12.293l5.147-5.147a.264.264,0,1,1,.373.373Z" transform="translate(-2 -2)" fill="#00c853"/>
  </g>
  <g id="Component_137_1" data-name="Component 137 – 1">
    <circle id="Ellipse_2455" data-name="Ellipse 2455" cx="8" cy="8" r="8" fill="#00c853"/>
    <g id="Group_46168" data-name="Group 46168" transform="translate(-166 -1874)">
      <rect id="Rectangle_206" data-name="Rectangle 206" width="10" height="10" transform="translate(169 1877)" fill="#00c853" opacity="0"/>
      <path id="Path_3" data-name="Path 3" d="M34,37l2,2,4-4" transform="translate(137 1845)" fill="none" stroke="#fff" stroke-linecap="round" stroke-linejoin="round" stroke-miterlimit="10" stroke-width="2"/>
    </g>
  </g>
</svg>
