<svg id="Group_53677" data-name="Group 53677" xmlns="http://www.w3.org/2000/svg" width="16" height="15.001" viewBox="0 0 16 15.001">
  <g id="Group_53676" data-name="Group 53676">
    <path id="Path_96757" data-name="Path 96757" d="M15.5,17.99H9v-1.5a.5.5,0,0,0-.181-.385A.491.491,0,0,0,8.408,16l-8,1.5A.5.5,0,0,0,0,17.99v11a.5.5,0,0,0,.408.491l8,1.5a.47.47,0,0,0,.092.009.5.5,0,0,0,.5-.5v-1.5h6.5a.5.5,0,0,0,.5-.5v-10A.5.5,0,0,0,15.5,17.99ZM6.876,25.161a.5.5,0,1,1-.752.658L4.67,24.158,3.395,25.8a.5.5,0,0,1-.79-.615L4,23.391,2.624,21.819a.5.5,0,0,1,.753-.658l1.248,1.426,1.481-1.9a.5.5,0,0,1,.789.615L5.3,23.354ZM15,27.99H9v-1h1.5a.5.5,0,0,0,0-1H9v-1h1.5a.5.5,0,0,0,0-1H9v-1h1.5a.5.5,0,0,0,0-1H9v-1h1.5a.5.5,0,0,0,0-1H9v-1h6Z" transform="translate(0 -15.989)" fill="#fff"/>
  </g>
</svg>
