<svg xmlns="http://www.w3.org/2000/svg" width="24" height="24" viewBox="0 0 24 24">
  <g id="ic_view_24" transform="translate(-997 -444)">
    <rect id="Rectangle_24230" data-name="Rectangle 24230" width="24" height="24" transform="translate(997 444)" fill="#fff" opacity="0"/>
    <g id="visibility" transform="translate(1001 376.333)">
      <g id="Group_103" data-name="Group 103" transform="translate(0 74.667)">
        <g id="Group_102" data-name="Group 102" transform="translate(0 0)">
          <path id="Path_47" data-name="Path 47" d="M172.849,170.667a2.182,2.182,0,1,0,2.182,2.182A2.184,2.184,0,0,0,172.849,170.667Z" transform="translate(-164.849 -167.394)" fill="#888"/>
          <path id="Path_48" data-name="Path 48" d="M8,74.667a8.6,8.6,0,0,0-8,5.455,8.594,8.594,0,0,0,16,0A8.6,8.6,0,0,0,8,74.667Zm0,9.091a3.636,3.636,0,1,1,3.636-3.636A3.638,3.638,0,0,1,8,83.758Z" transform="translate(0 -74.667)" fill="#888"/>
        </g>
      </g>
    </g>
  </g>
</svg>
