<svg class="theme-arco-icon theme-arco-icon-file-image " width="1em" height="1em" viewBox="0 0 16 16"
     fill="currentColor" xmlns="http://www.w3.org/2000/svg" font-size="24"
     style="color: rgba(0,0,0,.35);">
    <path d="M10.6664 7.83331C11.4947 7.83331 12.1662 7.16182 12.1662 6.3335C12.1662 5.50517 11.4947 4.83368 10.6664 4.83368C9.8381 4.83368 9.16661 5.50517 9.16661 6.3335C9.16661 7.16182 9.8381 7.83331 10.6664 7.83331Z"
          fill-opacity="1"></path>
    <path d="M1.33423 4.33374C1.33423 3.22931 2.22955 2.33398 3.33398 2.33398H12.6662C13.7706 2.33398 14.6659 3.22931 14.6659 4.33374V11.6662C14.6659 12.7706 13.7706 13.6659 12.6662 13.6659H3.33398C2.22955 13.6659 1.33423 12.7706 1.33423 11.6662V4.33374ZM3.33398 3.66716C2.96584 3.66716 2.6674 3.9656 2.6674 4.33374V8.84408L3.96551 7.54597C4.6915 6.81998 5.86858 6.81998 6.59458 7.54597L11.3814 12.3328H12.6662C13.0343 12.3328 13.3328 12.0343 13.3328 11.6662V4.33374C13.3328 3.9656 13.0343 3.66716 12.6662 3.66716H3.33398ZM2.6674 11.6662C2.6674 12.0343 2.96584 12.3328 3.33398 12.3328H9.49598L5.65188 8.48867C5.44652 8.28331 5.11356 8.28331 4.9082 8.48867L2.6674 10.7295V11.6662Z"
          fill-opacity="1"></path>
</svg>