<svg width="16" height="16" viewBox="0 0 16 16" fill="none" xmlns="http://www.w3.org/2000/svg">
<g id="Instagram" clip-path="url(#clip0_2811_6756)">
<path id="Vector" d="M5.60062 7.9998C5.60062 6.67437 6.67485 5.59961 8.00034 5.59961C9.32582 5.59961 10.4006 6.67437 10.4006 7.9998C10.4006 9.32524 9.32582 10.4 8.00034 10.4C6.67485 10.4 5.60062 9.32524 5.60062 7.9998ZM4.30308 7.9998C4.30308 10.0417 5.95833 11.6969 8.00034 11.6969C10.0423 11.6969 11.6976 10.0417 11.6976 7.9998C11.6976 5.95788 10.0423 4.30269 8.00034 4.30269C5.95833 4.30269 4.30313 5.95777 4.30313 7.9998H4.30308ZM10.98 4.1561C10.9799 4.32698 11.0305 4.49405 11.1254 4.63617C11.2203 4.77829 11.3552 4.88909 11.5131 4.95454C11.6709 5.02 11.8446 5.03718 12.0122 5.00391C12.1799 4.97064 12.3339 4.88841 12.4547 4.76763C12.5756 4.64684 12.658 4.49293 12.6914 4.32534C12.7248 4.15776 12.7078 3.98403 12.6424 3.82613C12.5771 3.66822 12.4664 3.53324 12.3243 3.43825C12.1823 3.34325 12.0153 3.29251 11.8444 3.29244H11.844C11.615 3.29255 11.3953 3.38357 11.2333 3.5455C11.0713 3.70743 10.9802 3.92704 10.98 4.1561ZM5.09142 13.8605C4.38942 13.8285 4.00786 13.7116 3.7543 13.6128C3.41813 13.4819 3.17828 13.3261 2.92609 13.0742C2.67391 12.8224 2.51781 12.5828 2.38751 12.2467C2.28867 11.9932 2.17173 11.6116 2.13982 10.9096C2.10491 10.1506 2.09794 9.92266 2.09794 7.99992C2.09794 6.07717 2.10549 5.84983 2.13982 5.09026C2.17179 4.38828 2.28959 4.00738 2.38751 3.75319C2.51838 3.41703 2.67425 3.17719 2.92609 2.92501C3.17793 2.67284 3.41756 2.51675 3.7543 2.38645C4.00775 2.28761 4.38942 2.17068 5.09142 2.13877C5.85039 2.10387 6.07838 2.0969 8.00034 2.0969C9.92229 2.0969 10.1505 2.10433 10.9101 2.13889C11.6121 2.17086 11.993 2.28865 12.2472 2.38657C12.5834 2.51686 12.8233 2.6733 13.0754 2.92513C13.3276 3.17696 13.4832 3.41715 13.614 3.7533C13.7129 4.00674 13.8298 4.3884 13.8617 5.09037C13.8966 5.84994 13.9036 6.07729 13.9036 8.00003C13.9036 9.92278 13.8966 10.1501 13.8617 10.9097C13.8297 11.6117 13.7122 11.9932 13.614 12.2468C13.4832 12.5829 13.3273 12.8228 13.0754 13.0744C12.8236 13.326 12.5834 13.4821 12.2472 13.6129C11.9938 13.7118 11.6121 13.8287 10.9101 13.8606C10.1511 13.8955 9.92316 13.9025 8.00034 13.9025C6.07751 13.9025 5.85016 13.8955 5.09142 13.8606V13.8605ZM5.0318 0.843408C4.26529 0.878314 3.74151 0.999849 3.28409 1.17783C2.81066 1.36164 2.40934 1.60822 2.0086 2.00831C1.60786 2.4084 1.3619 2.80976 1.17809 3.28375C1.0001 3.74144 0.878561 4.26491 0.843654 5.03139C0.808171 5.79908 0.800049 6.04451 0.800049 7.9998C0.800049 9.95509 0.808171 10.2005 0.843654 10.9682C0.878561 11.7348 1.0001 12.2582 1.17809 12.7159C1.3619 13.1893 1.60792 13.5914 2.0086 13.9913C2.40928 14.3912 2.81008 14.6375 3.28409 14.8218C3.74237 14.9998 4.26529 15.1213 5.0318 15.1562C5.79993 15.1911 6.04497 15.1998 8.00034 15.1998C9.9557 15.1998 10.2011 15.1917 10.9689 15.1562C11.7354 15.1213 12.2589 14.9998 12.7166 14.8218C13.19 14.6375 13.5913 14.3914 13.9921 13.9913C14.3928 13.5912 14.6383 13.1893 14.8226 12.7159C15.0006 12.2582 15.1227 11.7347 15.157 10.9682C15.1919 10.2 15.2 9.95509 15.2 7.9998C15.2 6.04451 15.1919 5.79908 15.157 5.03139C15.1221 4.26485 15.0006 3.74115 14.8226 3.28375C14.6383 2.81033 14.3922 2.40903 13.9921 2.00831C13.592 1.60759 13.19 1.36164 12.7172 1.17783C12.2589 0.999849 11.7354 0.877738 10.9694 0.843408C10.2016 0.80833 9.95628 0.799805 8.0012 0.799805C6.04612 0.799805 5.80022 0.807926 5.03209 0.843408" fill="white"/>
</g>
<defs>
<clipPath id="clip0_2811_6756">
<rect width="16" height="16" fill="white"/>
</clipPath>
</defs>
</svg>
