<svg id="Layer_2" data-name="Layer 2" xmlns="http://www.w3.org/2000/svg" xmlns:xlink="http://www.w3.org/1999/xlink" width="58" height="58" viewBox="0 0 58 58"><defs><style>.cls-1{fill:#fff;}.cls-1,.cls-3,.cls-4,.cls-6{fill-rule:evenodd;}.cls-2{mask:url(#mask);}.cls-3{fill:#238ec2;}.cls-4{fill:#253667;}.cls-5{mask:url(#mask-2);}.cls-6{fill:#20274f;}</style><mask id="mask" x="13" y="34.926" width="22.505" height="6.547" maskUnits="userSpaceOnUse"><g id="mask0"><path class="cls-1" d="M13,34.926H35.505v6.547H13Z"/></g></mask><mask id="mask-2" x="24.433" y="34.926" width="18.868" height="8.074" maskUnits="userSpaceOnUse"><g id="mask1"><path class="cls-1" d="M24.433,34.926H43.3V43H24.433Z"/></g></mask></defs><g class="cls-2"><path class="cls-3" d="M33.718,37.133c-.128.846-.774.846-1.4.846h-.356l.249-1.579a.2.2,0,0,1,.194-.166h.163c.426,0,.828,0,1.035.242A.786.786,0,0,1,33.718,37.133Zm-.271-2.207H31.09a.327.327,0,0,0-.324.276l-.953,6.044a.2.2,0,0,0,.194.227h1.209a.23.23,0,0,0,.227-.194l.27-1.713a.327.327,0,0,1,.324-.276h.745a2.421,2.421,0,0,0,2.683-2.241,1.816,1.816,0,0,0-.3-1.521A2.184,2.184,0,0,0,33.447,34.926Z"/><path class="cls-4" d="M16.908,37.133c-.129.846-.775.846-1.4.846h-.356L15.4,36.4a.2.2,0,0,1,.194-.166h.163c.425,0,.827,0,1.034.242A.786.786,0,0,1,16.908,37.133Zm-.272-2.207H14.279a.327.327,0,0,0-.323.276L13,41.246a.2.2,0,0,0,.195.227h1.125a.327.327,0,0,0,.323-.277l.258-1.63a.327.327,0,0,1,.323-.276h.746a2.421,2.421,0,0,0,2.682-2.241,1.812,1.812,0,0,0-.3-1.521A2.187,2.187,0,0,0,16.636,34.926Z"/></g><path class="cls-4" d="M22.108,39.3a1.258,1.258,0,0,1-1.274,1.078.875.875,0,0,1-.935-1.1A1.264,1.264,0,0,1,21.164,38.2a.954.954,0,0,1,.753.308A.977.977,0,0,1,22.108,39.3Zm1.573-2.2H22.552a.2.2,0,0,0-.194.166l-.05.316-.079-.115A1.6,1.6,0,0,0,20.9,37a2.6,2.6,0,0,0-2.519,2.27A2.13,2.13,0,0,0,18.8,41a1.768,1.768,0,0,0,1.422.574,2.159,2.159,0,0,0,1.562-.646l-.05.314a.2.2,0,0,0,.194.227h1.016a.329.329,0,0,0,.324-.276l.61-3.864A.2.2,0,0,0,23.681,37.106Z"/><path class="cls-3" d="M38.918,39.3a1.258,1.258,0,0,1-1.273,1.078.875.875,0,0,1-.935-1.1A1.263,1.263,0,0,1,37.975,38.2a.952.952,0,0,1,.752.308A.97.97,0,0,1,38.918,39.3Zm1.573-2.2H39.363a.2.2,0,0,0-.194.166l-.05.316-.079-.115A1.6,1.6,0,0,0,37.707,37a2.6,2.6,0,0,0-2.519,2.27A2.13,2.13,0,0,0,35.608,41a1.766,1.766,0,0,0,1.421.574,2.163,2.163,0,0,0,1.563-.646l-.051.314a.2.2,0,0,0,.194.227h1.017a.327.327,0,0,0,.323-.276l.61-3.864A.2.2,0,0,0,40.491,37.106Z"/><g class="cls-5"><path class="cls-4" d="M29.691,37.106H28.557a.327.327,0,0,0-.271.144l-1.565,2.3-.663-2.214a.327.327,0,0,0-.314-.234H24.629a.2.2,0,0,0-.186.26l1.249,3.666L24.517,42.69a.2.2,0,0,0,.161.31h1.133a.327.327,0,0,0,.269-.141l3.773-5.445A.2.2,0,0,0,29.691,37.106Z"/><path class="cls-3" d="M41.821,35.092l-.967,6.154a.2.2,0,0,0,.194.227h.973a.327.327,0,0,0,.323-.277l.954-6.043a.2.2,0,0,0-.194-.227H42.015A.2.2,0,0,0,41.821,35.092Z"/></g><path class="cls-3" d="M35.5,17.977a3.885,3.885,0,0,0-.824-3.494c-.906-1.032-2.543-1.475-4.637-1.475H23.96a.87.87,0,0,0-.859.734L20.57,29.791a.522.522,0,0,0,.516.6h3.752l-.259,1.643a.456.456,0,0,0,.451.527h3.163a.76.76,0,0,0,.751-.642l.031-.161.6-3.778.038-.209a.762.762,0,0,1,.752-.642h.473c3.064,0,5.463-1.245,6.164-4.845a4.125,4.125,0,0,0-.633-3.642A3.021,3.021,0,0,0,35.5,17.977Z"/><path class="cls-6" d="M35.5,17.977a3.885,3.885,0,0,0-.824-3.494c-.906-1.032-2.543-1.475-4.637-1.475H23.96a.87.87,0,0,0-.859.734L20.57,29.791a.522.522,0,0,0,.516.6h3.752l.943-5.977-.03.188a.866.866,0,0,1,.856-.734h1.784c3.5,0,6.245-1.423,7.046-5.538C35.461,18.211,35.481,18.093,35.5,17.977Z"/><path class="cls-4" d="M26.793,18a.759.759,0,0,1,.752-.642h4.764a10,10,0,0,1,1.572.114c.137.022.271.048.4.076s.256.062.378.1l.18.056a4.236,4.236,0,0,1,.659.279,3.885,3.885,0,0,0-.824-3.494c-.906-1.032-2.543-1.475-4.637-1.475H23.96a.87.87,0,0,0-.859.734L20.57,29.791a.522.522,0,0,0,.516.6h3.752Z"/></svg>