<svg width="16" height="16" viewBox="0 0 16 16" fill="none" xmlns="http://www.w3.org/2000/svg">
<g id="Pinterest" clip-path="url(#clip0_2811_6748)">
<path id="Vector" d="M7.02418 0.0535087C4.36532 0.350326 1.71584 2.50147 1.60648 5.57431C1.53775 7.4505 2.07046 8.85804 3.85605 9.25327C4.63089 7.88635 3.60609 7.58485 3.44675 6.59598C2.79219 2.54365 8.12084 -0.219876 10.9094 2.60926C12.8387 4.56825 11.5686 10.5952 8.45671 9.96876C5.47604 9.37044 9.9158 4.57294 7.53658 3.63093C5.60258 2.86546 4.57466 5.97266 5.49167 7.51611C4.95427 10.1703 3.79668 12.6714 4.26534 16.0004C5.78536 14.8975 6.29776 12.7854 6.71799 10.5827C7.4819 11.0467 7.88964 11.5294 8.86445 11.6044C12.4591 11.8824 14.4665 8.01602 13.976 4.44952C13.5401 1.28764 10.3845 -0.321418 7.02418 0.0535087Z" fill="white"/>
</g>
<defs>
<clipPath id="clip0_2811_6748">
<rect width="16" height="16" fill="white"/>
</clipPath>
</defs>
</svg>
