<svg width="16" height="16" viewBox="0 0 16 16" fill="none" xmlns="http://www.w3.org/2000/svg">
<g id="Pinterest" clip-path="url(#clip0_399_4015)">
<path id="Vector" d="M7.02406 0.0535087C4.3652 0.350326 1.71572 2.50147 1.60636 5.57431C1.53762 7.4505 2.07033 8.85804 3.85592 9.25327C4.63077 7.88635 3.60597 7.58485 3.44663 6.59598C2.79207 2.54365 8.12072 -0.219876 10.9092 2.60926C12.8386 4.56825 11.5685 10.5952 8.45659 9.96876C5.47592 9.37044 9.91568 4.57294 7.53646 3.63093C5.60246 2.86546 4.57453 5.97266 5.49154 7.51611C4.95415 10.1703 3.79656 12.6714 4.26522 16.0004C5.78524 14.8975 6.29764 12.7854 6.71787 10.5827C7.48178 11.0467 7.88951 11.5294 8.86432 11.6044C12.4589 11.8824 14.4664 8.01602 13.9758 4.44952C13.54 1.28764 10.3843 -0.321418 7.02406 0.0535087Z" fill="#5F6C72"/>
</g>
<defs>
<clipPath id="clip0_399_4015">
<rect width="16" height="16" fill="white"/>
</clipPath>
</defs>
</svg>
