<svg xmlns="http://www.w3.org/2000/svg" width="20" height="20" viewBox="0 0 20 20" fill="none">
    <path fill-rule="evenodd" clip-rule="evenodd" d="M1.96024 13.4352C2.13417 13.137 2.51686 13.0363 2.81502 13.2102L10.0001 17.4015L17.1852 13.2102C17.4833 13.0363 17.866 13.137 18.04 13.4352C18.2139 13.7333 18.1132 14.116 17.815 14.29L10.315 18.665C10.1204 18.7785 9.87978 18.7785 9.68518 18.665L2.18518 14.29C1.88702 14.116 1.78631 13.7333 1.96024 13.4352Z" fill="#FFFFFF"/>
    <path fill-rule="evenodd" clip-rule="evenodd" d="M1.96024 9.68518C2.13417 9.38702 2.51686 9.28631 2.81502 9.46024L10.0001 13.6515L17.1852 9.46024C17.4833 9.28631 17.866 9.38702 18.04 9.68518C18.2139 9.98334 18.1132 10.366 17.815 10.54L10.315 14.915C10.1204 15.0285 9.87978 15.0285 9.68518 14.915L2.18518 10.54C1.88702 10.366 1.78631 9.98334 1.96024 9.68518Z" fill="#FFFFFF"/>
    <path fill-rule="evenodd" clip-rule="evenodd" d="M9.68508 1.33514C9.87968 1.22162 10.1203 1.22162 10.3149 1.33514L17.8149 5.71014C18.0069 5.82214 18.125 6.02771 18.125 6.25C18.125 6.47229 18.0069 6.67786 17.8149 6.78986L10.3149 11.1649C10.1203 11.2784 9.87968 11.2784 9.68508 11.1649L2.18508 6.78986C1.99307 6.67786 1.875 6.47229 1.875 6.25C1.875 6.02771 1.99307 5.82214 2.18508 5.71014L9.68508 1.33514ZM3.7404 6.25L10 9.90144L16.2596 6.25L10 2.59856L3.7404 6.25Z" fill="#FFFFFF"/>
</svg>
