<?xml version="1.0" encoding="UTF-8"?><svg id="Layer_1" xmlns="http://www.w3.org/2000/svg" viewBox="0 0 317.2 143.3"><defs><style>.cls-1{fill:#f60;}.cls-2{fill:#0d0d0d;}</style></defs><path class="cls-2" d="M5.29,52.39c0-16.77,0-25.16,3.26-31.57,2.87-5.64,7.45-10.22,13.09-13.09,6.41-3.26,14.79-3.26,31.57-3.26h38.67c16.77,0,25.16,0,31.57,3.26,5.64,2.87,10.22,7.45,13.09,13.09,3.26,6.41,3.26,14.79,3.26,31.57v38.67c0,16.77,0,25.16-3.26,31.57-2.87,5.64-7.45,10.22-13.09,13.09-6.41,3.26-14.79,3.26-31.57,3.26H53.21c-16.77,0-25.16,0-31.57-3.26-5.64-2.87-10.22-7.45-13.09-13.09-3.26-6.41-3.26-14.79-3.26-31.57V52.39Z"/><path class="cls-2" d="M184.95,61.33c-7.14,0-11.33,4.86-11.33,4.86v-18.32h-6.51v46.91h6.18v-4.42s3.99,5.09,11.66,5.09c8.98,0,15.83-7.39,15.83-17.07s-6.62-17.07-15.83-17.07h0Zm-1.34,28.19c-2.91,0-5.54-1.11-7.41-3.14-1.88-2.02-2.91-4.86-2.91-7.99,0-6.55,4.25-11.13,10.32-11.13s10.32,4.58,10.32,11.13-4.15,11.13-10.32,11.13h0Z"/><path class="cls-2" d="M217.02,95.45c6.23,0,9.98-3.16,11.99-5.48v4.81h5.91v-21.42c0-7.31-5.74-12.03-13.96-12.03-6.83,0-12.47,3.51-14.83,9.2l5.74,1.94c1.39-3.52,4.68-5.6,8.88-5.6,5.99,0,7.92,3.07,7.92,4.79,0,1.96-1.52,2.59-2.84,2.76l-10.19,1.35c-9.14,1.26-10.31,7.16-10.31,10.1,0,4.08,2.35,9.59,11.69,9.59h0Zm-.12-14.87l7.6-1.02c1.46-.19,3.12-.5,4.19-1.49v3.44c0,3.24-3.36,8.55-10.59,8.55-5.01,0-6-2.8-6.11-4.6-.15-2.48,1.68-4.48,4.91-4.88h0Z"/><path class="cls-2" d="M258.6,67.4c7.17,0,8.25,5.85,8.25,8.36v19.02h6.72v-19.02c0-7.54-4.13-14.44-13.56-14.44-5.75,0-9.25,2.96-11.2,5.15v-4.47h-6.18v32.79h6.51v-17.68c0-3.56,2.05-9.7,9.46-9.7h0Z"/><path class="cls-2" d="M303.5,94.78h8.43l-14.96-19.26,14.22-13.52h-8.32l-15.12,14.39v-28.52h-6.52v46.91h6.52v-10.72l4.29-4.07,11.46,14.8Z"/><path class="cls-1" d="M60.06,69.94h-9.97v13.18c0,2.84,1.95,4.09,4.25,4.09,1.84,0,3.94-.46,5.71-1.25v8.18c-1.91,.79-4.34,1.25-7.1,1.25-7.28,0-11.87-4.83-11.86-11.69v-13.79h-8.32v-8.18h8.34v-8.51h8.99v8.52h9.97v8.19h0Z"/><path class="cls-1" d="M99.31,51.24c0-3.36,2.56-5.93,5.91-5.93s5.9,2.58,5.9,5.94-2.56,5.93-5.91,5.93-5.9-2.58-5.9-5.94h0Zm1.37,10.56h9.06l-.03,32.99h-9.06l.03-32.99Z"/><path class="cls-1" d="M82.11,61.14c-4.17,0-7.64,1.69-9.83,3.93v-17.16h-8.99l-.04,46.85h8.53v-3.86c2.51,2.76,6.62,4.53,10.4,4.53,9.78,0,15.92-7.67,15.92-17.14s-6.18-17.14-15.99-17.14h0Zm-1.78,25.97c-4.89,0-8.33-3.83-8.33-8.86s3.38-8.86,8.44-8.86,8.16,4.02,8.16,8.86-3.47,8.86-8.27,8.86h0Z"/></svg>