<svg id="Layer_2" data-name="Layer 2" xmlns="http://www.w3.org/2000/svg" width="58" height="58" viewBox="0 0 58 58"><defs><style>.cls-1{fill:#0ee06e;}</style></defs><path class="cls-1" d="M8.936,43.362v-8.9H5.728V32.512h8.53v1.951H11.05v8.9Z"/><path class="cls-1" d="M14.02,43.362v-7.88h1.962v1.246a1.842,1.842,0,0,1,1.832-1.246h.769v1.973h-.672c-1,0-1.875.574-1.875,2.319v3.577H14.02Z"/><path class="cls-1" d="M19.689,40.511V35.493h2.016v4.542c0,1.008.52,1.68,1.442,1.68a1.549,1.549,0,0,0,1.55-1.67V35.482h2.027v7.88H24.773v-1A2.543,2.543,0,0,1,22.5,43.536,2.721,2.721,0,0,1,19.689,40.511Z"/><path class="cls-1" d="M27.786,41.129l1.778-.4c.086.694.65,1.16,1.593,1.16.77,0,1.214-.325,1.214-.748,0-.347-.206-.574-.954-.759l-1.279-.292c-1.5-.347-2.2-1.052-2.2-2.363,0-1.334,1.116-2.4,3.154-2.4,2.157,0,3.046,1.279,3.165,2.2l-1.778.39c-.086-.488-.455-1.008-1.43-1.008-.64,0-1.117.292-1.117.715,0,.369.282.575.716.683l1.734.412A2.243,2.243,0,0,1,34.387,41c0,1.268-1.03,2.515-3.219,2.515C28.783,43.514,27.894,42.094,27.786,41.129Z"/><path class="cls-1" d="M38.55,43.362a2.019,2.019,0,0,1-2.212-2.211V37.238H35.027V35.482h1.311v-1.8l2.016-.575v2.374h1.605v1.756H38.354V40.8c0,.575.282.8.868.8H40.1v1.756Z"/><path class="cls-1" d="M41.411,43.362V32.512h2.016v10.85Z"/><path class="cls-1" d="M50.1,35.482h2.168l-3.327,10.7H46.777l.921-2.818H46.6l-2.244-7.88h2.168l1.713,6.2Z"/><polygon class="cls-1" points="17.879 19.114 25.651 19.114 25.651 12.914 31.851 19.114 25.651 25.315 25.651 28.48 33.173 28.48 33.173 19.114 40.089 19.114 40.089 11.82 17.879 11.82 17.879 19.114"/></svg>
