<svg class="theme-arco-icon theme-arco-icon-Im_Sendvideo index__add--+hEXZ" width="24" height="24" viewBox="0 0 24 24"
     fill="rgba(0,0,0,.35)" xmlns="http://www.w3.org/2000/svg" style="color: var(--theme-arco-color-text-4);">
    <path d="M3.125 4.5C1.74429 4.5 0.625 5.61929 0.625 7V17C0.625 18.3807 1.74429 19.5 3.125 19.5H15.125C16.5057 19.5 17.625 18.3807 17.625 17V13.9094L21.769 17.0667C22.0713 17.297 22.4782 17.3361 22.8188 17.1673C23.1595 16.9986 23.375 16.6514 23.375 16.2712V8.27123C23.375 7.8911 23.1595 7.54383 22.8188 7.37512C22.4782 7.2064 22.0713 7.24542 21.769 7.4758L17.625 10.6331V7C17.625 5.61929 16.5057 4.5 15.125 4.5H3.125ZM2.625 7C2.625 6.72386 2.84886 6.5 3.125 6.5H15.125C15.4011 6.5 15.625 6.72386 15.625 7V17C15.625 17.2761 15.4011 17.5 15.125 17.5H3.125C2.84886 17.5 2.625 17.2761 2.625 17V7ZM21.375 14.2522L18.775 12.2713L21.375 10.2903V14.2522Z"
          fill-opacity="1"></path>
    <path d="M11.9946 12.2713C12.169 12.3945 12.1684 12.6357 11.9932 12.7582L7.16383 15.4364C6.94318 15.5907 6.625 15.4467 6.625 15.1925V9.80754C6.625 8.5526 6.94478 8.40876 7.16519 8.56455L11.9946 12.2713Z"
          fill-opacity="1"></path>
</svg>