<svg id="Layer_1" enable-background="new 0 0 491.5 491.5" height="512" viewBox="0 0 491.5 491.5" width="512" xmlns="http://www.w3.org/2000/svg"><g id="Layer_x0020_1"><g id="_389490320" clip-rule="evenodd" fill="#ec407a" fill-rule="evenodd"><path id="_389490704" d="m156.2 346.9c-1.5 0-3.1-.8-4-2.2l-51.2-79.1c-1.4-2.2-.8-5.1 1.4-6.6 2.2-1.4 5.1-.8 6.6 1.4l51.2 79.1c1.4 2.2.8 5.1-1.4 6.5-.9.6-1.8.9-2.6.9z"/><path id="_389490920" d="m105 346.9c-.9 0-1.8-.2-2.6-.8-2.2-1.4-2.8-4.4-1.4-6.5l51.2-79.1c1.4-2.2 4.4-2.8 6.6-1.4s2.8 4.4 1.4 6.6l-51.2 79c-.9 1.4-2.5 2.2-4 2.2z"/><path id="_389490632" d="m237.5 346.9h-51.2c-2.6 0-4.7-2.1-4.7-4.7v-79.1c0-2.6 2.1-4.7 4.7-4.7s4.7 2.1 4.7 4.7v74.4h46.4c2.6 0 4.7 2.1 4.7 4.7.1 2.6-2 4.7-4.6 4.7z"/><path id="_389490776" d="m298.1 346.9h-23.4c-10.3 0-18.6-8.3-18.6-18.6 0-2.6 2.1-4.7 4.7-4.7s4.7 2.1 4.7 4.7c0 5.1 4.1 9.1 9.1 9.1h23.4c5 0 9.1-4.1 9.1-9.1v-11.8c0-5-4.1-9.1-9.1-9.1h-23.4c-10.3 0-18.6-8.3-18.6-18.6v-11.8c0-10.3 8.3-18.6 18.6-18.6h23.4c10.3 0 18.6 8.3 18.6 18.6 0 2.6-2.1 4.7-4.7 4.7s-4.7-2.1-4.7-4.7c0-5-4.1-9.1-9.1-9.1h-23.4c-5 0-9.2 4.1-9.2 9.1v11.8c0 5 4.1 9.1 9.1 9.1h23.4c10.3 0 18.6 8.4 18.6 18.6v11.8c.1 10.2-8.2 18.6-18.5 18.6z"/><path id="_389491208" d="m386.5 346.9c-1.6 0-3.1-.8-4-2.2l-51.2-79.1c-1.4-2.2-.8-5.1 1.4-6.6 2.2-1.4 5.1-.8 6.6 1.4l51.2 79.1c1.4 2.2.8 5.1-1.4 6.5-.8.6-1.7.9-2.6.9z"/><path id="_389491160" d="m335.4 346.9c-.9 0-1.8-.2-2.6-.8-2.2-1.4-2.8-4.4-1.4-6.5l51.2-79.1c1.4-2.2 4.4-2.8 6.6-1.4s2.8 4.4 1.4 6.6l-51.2 79.1c-1 1.3-2.5 2.1-4 2.1z"/><path id="_389490032" d="m415.5 236.3c-2.6 0-4.7-2.1-4.7-4.7v-80.6l-112.8-112.7h-186.4c-17 0-30.8 13.8-30.8 30.8v162.5c0 2.6-2.1 4.7-4.7 4.7s-4.7-2.1-4.7-4.7v-162.5c0-22.2 18.1-40.3 40.3-40.3h188.3c1.3 0 2.5.5 3.4 1.4l115.5 115.5c.9.9 1.4 2.1 1.4 3.4v82.6c-.1 2.5-2.2 4.6-4.8 4.6zm-35.6 226.4h-268.3c-22.2 0-40.3-18.1-40.3-40.3v-48.9c0-2.6 2.1-4.7 4.7-4.7s4.7 2.1 4.7 4.7v48.9c0 17 13.8 30.8 30.8 30.8h268.4c17 0 30.8-13.8 30.8-30.8v-48.9c0-2.6 2.1-4.7 4.7-4.7s4.7 2.1 4.7 4.7v48.9c.1 22.3-18 40.3-40.2 40.3z"/><path id="_389490176" d="m415.5 153.7h-75.9c-24.4 0-44.3-19.9-44.3-44.3v-75.9c0-2.6 2.1-4.7 4.7-4.7s4.7 2.1 4.7 4.7v75.9c0 19.2 15.6 34.9 34.9 34.9h75.9c2.6 0 4.7 2.1 4.7 4.7s-2.1 4.7-4.7 4.7z"/><path id="_389489936" d="m458 402.8c-2.6 0-4.7-2.1-4.7-4.7v-140.2c0-11.9-9.6-21.5-21.5-21.5h-372c-11.9 0-21.5 9.6-21.5 21.5v140.1c0 2.6-2.1 4.7-4.7 4.7s-4.7-2.1-4.7-4.7v-140.2c0-17.1 13.9-31 31-31h372c17.1 0 31 13.9 31 31v140.2c-.2 2.6-2.3 4.8-4.9 4.8z"/><path id="_389489888" d="m433.6 427.2h-18.1c-2.6 0-4.7-2.1-4.7-4.7s2.1-4.7 4.7-4.7h18.1c10.9 0 19.7-8.8 19.7-19.7s-8.8-19.7-19.7-19.7h-375.6c-10.9 0-19.7 8.8-19.7 19.7s8.8 19.7 19.7 19.7h18.1c2.6 0 4.7 2.1 4.7 4.7s-2.1 4.7-4.7 4.7h-18.1c-16.1 0-29.2-13.1-29.2-29.2s13.1-29.2 29.2-29.2h375.6c16.1 0 29.2 13.1 29.2 29.2-.1 16.1-13.2 29.2-29.2 29.2z"/><path id="_389489792" d="m378.3 191.5h-265c-2.6 0-4.7-2.1-4.7-4.7s2.1-4.7 4.7-4.7h265c2.6 0 4.7 2.1 4.7 4.7s-2.1 4.7-4.7 4.7z"/><path id="_389489864" d="m268.2 143.4h-154.9c-2.6 0-4.7-2.1-4.7-4.7s2.1-4.7 4.7-4.7h154.9c2.6 0 4.7 2.1 4.7 4.7s-2.1 4.7-4.7 4.7z"/><path id="_389489840" d="m268.2 95.3h-154.9c-2.6 0-4.7-2.1-4.7-4.7s2.1-4.7 4.7-4.7h154.9c2.6 0 4.7 2.1 4.7 4.7s-2.1 4.7-4.7 4.7z"/></g></g></svg>