<svg width="16" height="16" viewBox="0 0 16 16" fill="none" xmlns="http://www.w3.org/2000/svg">
<g id="Youtube">
<path id="Vector" d="M8.35392 13.5026L5.07659 13.4427C4.01547 13.4218 2.9517 13.4635 1.91138 13.2472C0.328813 12.924 0.216699 11.3393 0.0993827 10.0101C-0.062267 8.14132 0.000312411 6.23865 0.305366 4.3855C0.477579 3.34568 1.15531 2.72522 2.20339 2.6577C5.74144 2.41267 9.30301 2.44171 12.8332 2.55602C13.2061 2.5665 13.5814 2.62378 13.9491 2.68898C15.7638 3.00697 15.808 4.80277 15.9257 6.31449C16.043 7.84181 15.9935 9.37697 15.7692 10.8939C15.5893 12.1499 15.2452 13.2031 13.7926 13.3048C11.9727 13.4378 10.1946 13.5448 8.36952 13.5107C8.3696 13.5026 8.35912 13.5026 8.35392 13.5026ZM6.42717 10.3229C7.79863 9.53569 9.14392 8.76163 10.5075 7.97973C9.13352 7.19255 7.79079 6.41849 6.42717 5.63659V10.3229Z" fill="white"/>
</g>
</svg>
