<svg id="Layer_1" enable-background="new 0 0 491.5 491.5" height="512" viewBox="0 0 491.5 491.5" width="512" xmlns="http://www.w3.org/2000/svg"><g id="Layer_x0020_1"><g id="_450533272" clip-rule="evenodd" fill-rule="evenodd"><path id="_450534280" d="m415.5 236.3c-2.6 0-4.7-2.1-4.7-4.7v-80.6l-112.8-112.7h-186.4c-17 0-30.8 13.8-30.8 30.8v162.5c0 2.6-2.1 4.7-4.7 4.7s-4.7-2.1-4.7-4.7v-162.5c0-22.2 18.1-40.3 40.3-40.3h188.3c1.3 0 2.5.5 3.3 1.4l115.5 115.5c.9.9 1.4 2.1 1.4 3.3v82.6c0 2.6-2.1 4.7-4.7 4.7zm-35.6 226.4h-268.3c-22.2 0-40.3-18.1-40.3-40.3v-48.9c0-2.6 2.1-4.7 4.7-4.7s4.7 2.1 4.7 4.7v48.9c0 17 13.8 30.8 30.8 30.8h268.4c17 0 30.8-13.8 30.8-30.8v-48.9c0-2.6 2.1-4.7 4.7-4.7s4.7 2.1 4.7 4.7v48.8c.1 22.4-18 40.4-40.2 40.4z"/><path id="_450534208" d="m415.5 153.7h-75.9c-24.4 0-44.3-19.9-44.3-44.3v-75.9c0-2.6 2.1-4.7 4.7-4.7s4.7 2.1 4.7 4.7v75.9c0 19.2 15.6 34.9 34.9 34.9h75.9c2.6 0 4.7 2.1 4.7 4.7s-2.1 4.7-4.7 4.7z"/><path id="_450534112" d="m458 402.8c-2.6 0-4.7-2.1-4.7-4.7v-140.2c0-11.9-9.6-21.5-21.5-21.5h-372c-11.9 0-21.5 9.6-21.5 21.5v140.1c0 2.6-2.1 4.7-4.7 4.7s-4.7-2.1-4.7-4.7v-140.2c0-17.1 13.9-31 31-31h372c17.1 0 31 13.9 31 31v140.2c-.2 2.6-2.3 4.8-4.9 4.8z"/><path id="_450534040" d="m433.6 427.2h-18.1c-2.6 0-4.7-2.1-4.7-4.7s2.1-4.7 4.7-4.7h18.1c10.9 0 19.7-8.8 19.7-19.7s-8.8-19.7-19.7-19.7h-375.6c-10.9 0-19.7 8.8-19.7 19.7s8.8 19.7 19.7 19.7h18.1c2.6 0 4.7 2.1 4.7 4.7s-2.1 4.7-4.7 4.7h-18.1c-16.1 0-29.2-13.1-29.2-29.2s13.1-29.2 29.2-29.2h375.6c16.1 0 29.2 13.1 29.2 29.2-.1 16.1-13.2 29.2-29.2 29.2z"/><path id="_450533968" d="m378.3 191.5h-265c-2.6 0-4.7-2.1-4.7-4.7s2.1-4.7 4.7-4.7h265c2.6 0 4.7 2.1 4.7 4.7s-2.1 4.7-4.7 4.7z"/><path id="_450533848" d="m268.2 143.4h-154.9c-2.6 0-4.7-2.1-4.7-4.7s2.1-4.7 4.7-4.7h154.9c2.6 0 4.7 2.1 4.7 4.7s-2.1 4.7-4.7 4.7z"/><path id="_450533872" d="m268.2 95.3h-154.9c-2.6 0-4.7-2.1-4.7-4.7s2.1-4.7 4.7-4.7h154.9c2.6 0 4.7 2.1 4.7 4.7s-2.1 4.7-4.7 4.7z"/><path id="_450534016" d="m191.8 346.9h-51.2c-1.7 0-3.3-.9-4.2-2.5-.8-1.5-.8-3.4.2-4.8l46.4-71.8h-42.5c-2.6 0-4.7-2.1-4.7-4.7s2.1-4.7 4.7-4.7h51.2c1.7 0 3.3.9 4.2 2.5.8 1.5.8 3.4-.2 4.8l-46.4 71.8h42.5c2.6 0 4.7 2.1 4.7 4.7 0 2.5-2.1 4.7-4.7 4.7z"/><path id="_450534472" d="m271.3 346.9h-51.2c-2.6 0-4.7-2.1-4.7-4.7s2.1-4.7 4.7-4.7h51.2c2.6 0 4.7 2.1 4.7 4.7.1 2.6-2 4.7-4.7 4.7z"/><path id="_450534352" d="m245.8 346.9c-2.6 0-4.7-2.1-4.7-4.7v-79.2c0-2.6 2.1-4.7 4.7-4.7s4.7 2.1 4.7 4.7v79.1c0 2.7-2.1 4.8-4.7 4.8z"/><path id="_450533632" d="m271.3 267.8h-51.2c-2.6 0-4.7-2.1-4.7-4.7s2.1-4.7 4.7-4.7h51.2c2.6 0 4.7 2.1 4.7 4.7.1 2.5-2 4.7-4.7 4.7z"/><path id="_450533512" d="m304.5 297.8h26.7c8.3 0 15-6.7 15-15s-6.7-15-15-15h-26.7zm26.7 9.5h-31.4c-2.6 0-4.7-2.1-4.7-4.7v-39.6c0-2.6 2.1-4.7 4.7-4.7h31.4c13.5 0 24.5 11 24.5 24.5s-11 24.5-24.5 24.5z"/><path id="_450533032" d="m299.8 346.9c-2.6 0-4.7-2.1-4.7-4.7v-39.6c0-2.6 2.1-4.7 4.7-4.7s4.7 2.1 4.7 4.7v39.6c0 2.6-2.1 4.7-4.7 4.7z"/></g></g></svg>